<svg width="152" height="160" viewBox="0 0 152 160" fill="none" xmlns="http://www.w3.org/2000/svg">
<g clip-path="url(#clip0_295_1191)">
<path d="M28.4504 54.8817L53.3072 115.799H88.8976L112.625 54.8817H28.4504Z" stroke="#7DA1B1" stroke-width="3" stroke-miterlimit="10"/>
<path d="M37.0373 76.8796L27.9984 68.9829H15.0051L11.0506 85.3403L27.9984 104.518L49.6352 107.959L37.0373 76.8796Z" stroke="#7DA1B1" stroke-width="3" stroke-miterlimit="10"/>
<path d="M104.264 76.8796L114.037 68.9829H127.03L130.985 85.3403L114.037 104.518L92.4001 107.959L104.264 76.8796Z" stroke="#7DA1B1" stroke-width="3" stroke-miterlimit="10"/>
<path d="M74.7179 115.799H66.357V146.257H74.7179V115.799Z" stroke="#7DA1B1" stroke-width="3" stroke-miterlimit="10"/>
<path d="M66.0181 146.257L49.6352 154.154H91.4398L74.492 146.257H66.0181Z" stroke="#7DA1B1" stroke-width="3" stroke-miterlimit="10"/>
<path d="M61.8941 95.4931C61.8941 94.9291 74.8874 67.2908 74.8874 67.2908L83.3613 98.3133L50.5955 77.4436L94.0949 79.1358L61.8941 95.4931Z" fill="#F0E262"/>
<path d="M92.4001 44.1649L95.2248 35.1402L100.874 39.6525V28.9356L112.738 34.5761L115.562 23.2952L120.647 33.448L126.296 14.8345" stroke="#7DA1B1" stroke-width="3" stroke-miterlimit="10"/>
<path d="M72.0628 44.1649L68.1083 39.6525L79.9718 34.5761L64.7187 25.5513L78.277 20.4749L63.5889 13.7063L81.1016 9.19397L66.9784 0.733276" stroke="#7DA1B1" stroke-width="3" stroke-miterlimit="10"/>
<path d="M49.4657 44.1649L48.3358 38.5244L35.3425 44.1649L42.6865 31.1918L21.7842 39.0885L35.3425 24.9873L13.3103 27.8075L24.0439 18.2188" stroke="#7DA1B1" stroke-width="3" stroke-miterlimit="10"/>
<path d="M133.301 65.8806L141.944 50.7078L143.357 66.9523L128.838 53.4716L152 58.6608L133.301 65.8806Z" fill="#F0E262"/>
<path d="M26.6426 143.381L23.7615 127.926L34.1561 138.304L16.3044 137.458L35.3425 127.587L26.6426 143.381Z" fill="#F0E262"/>
<path d="M100.14 141.632L112.455 129.618L108.331 145.524L100.309 128.433L118.443 140.109L100.14 141.632Z" fill="#F0E262"/>
<path d="M8.22597 53.8665L16.8694 46.2519L14.3272 56.6867L8 45.1802L21.5583 53.3589L8.22597 53.8665Z" fill="#F0E262"/>
</g>
<defs>
<clipPath id="clip0_295_1191">
<rect width="144" height="155" fill="white" transform="translate(8)"/>
</clipPath>
</defs>
</svg>
