<svg width="403" height="120" viewBox="0 0 403 120" fill="none" xmlns="http://www.w3.org/2000/svg">
<path d="M374.978 91.698V13.1791L332.389 13.1791L331.695 33.5718C331.418 40.4156 330.955 46.982 330.308 53.2709C329.753 59.5598 328.921 65.2476 327.811 70.3342C326.701 75.3283 325.129 79.4439 323.094 82.6808C321.152 85.9177 318.655 87.9062 315.603 88.646L300.62 86.1489C304.227 86.4264 307.187 85.2241 309.499 82.5421C311.904 79.7676 313.753 75.9295 315.048 71.0278C316.435 66.0337 317.453 60.2534 318.1 53.6871C318.747 47.0282 319.21 39.907 319.487 32.3233L320.458 1.10992L388.711 1.10992V91.698H374.978ZM297.152 119.443L297.291 86.1489H403V119.443H390.099V98.2181H310.193L310.054 119.443H297.152Z" fill="#7DA1B1"/>
<path d="M237.899 99.3278C230.5 99.3278 223.61 98.0793 217.228 95.5822C210.94 93.0851 205.483 89.617 200.859 85.1777C196.235 80.646 192.628 75.3744 190.038 69.363C187.449 63.3515 186.154 56.7852 186.154 49.6639C186.154 42.5426 187.449 35.9763 190.038 29.9648C192.628 23.9533 196.235 18.728 200.859 14.2888C205.483 9.75705 210.94 6.24266 217.228 3.74559C223.517 1.24853 230.407 0 237.899 0C245.297 0 252.095 1.24853 258.291 3.74559C264.58 6.15018 270.037 9.61833 274.661 14.15C279.378 18.5893 282.985 23.8146 285.482 29.8261C288.071 35.8375 289.366 42.4501 289.366 49.6639C289.366 56.8776 288.071 63.4902 285.482 69.5017C282.985 75.5132 279.378 80.7848 274.661 85.3165C270.037 89.7557 264.58 93.2238 258.291 95.7209C252.095 98.1255 245.297 99.3278 237.899 99.3278ZM237.899 86.9812C243.263 86.9812 248.211 86.0563 252.742 84.2067C257.366 82.357 261.343 79.7674 264.673 76.438C268.095 73.0161 270.73 69.0393 272.58 64.5076C274.522 59.9759 275.493 55.028 275.493 49.6639C275.493 44.2998 274.522 39.3519 272.58 34.8202C270.73 30.2885 268.095 26.3579 264.673 23.0285C261.343 19.6066 257.366 16.9708 252.742 15.1211C248.211 13.2714 243.263 12.3466 237.899 12.3466C232.442 12.3466 227.402 13.2714 222.777 15.1211C218.246 16.9708 214.269 19.6066 210.847 23.0285C207.425 26.3579 204.743 30.2885 202.801 34.8202C200.951 39.3519 200.026 44.2998 200.026 49.6639C200.026 55.028 200.951 59.9759 202.801 64.5076C204.743 69.0393 207.425 73.0161 210.847 76.438C214.269 79.7674 218.246 82.357 222.777 84.2067C227.402 86.0563 232.442 86.9812 237.899 86.9812Z" fill="#7DA1B1"/>
<path d="M93.2661 1.10992L109.22 1.10992L134.606 36.6238L159.993 1.10992L176.224 1.10992L143.346 47.7219L178.86 98.2181H162.49L134.606 59.5136L106.861 98.2181H90.9077L126.283 48.2768L93.2661 1.10992Z" fill="#7DA1B1"/>
<path d="M0 98.2181L0 1.10992L41.7565 1.10992C52.2997 1.10992 60.577 3.23705 66.5885 7.49132C72.5999 11.7456 75.6057 17.942 75.6057 26.0806C75.6057 34.0342 72.7386 40.1382 67.0046 44.3924C61.2706 48.5542 53.7332 50.6351 44.3923 50.6351L46.8894 46.4733C57.71 46.4733 65.9873 48.6467 71.7213 52.9934C77.5478 57.2477 80.4611 63.4904 80.4611 71.7215C80.4611 80.045 77.4091 86.5651 71.3051 91.2818C65.2937 95.906 56.3227 98.2181 44.3923 98.2181H0ZM13.7339 87.2588H44.1149C51.5136 87.2588 57.0626 85.9177 60.762 83.2357C64.5538 80.4612 66.4497 76.2532 66.4497 70.6116C66.4497 64.9701 64.5538 60.8546 60.762 58.265C57.0626 55.6755 51.5136 54.3807 44.1149 54.3807H13.7339L13.7339 87.2588ZM13.7339 43.8375H40.7854C47.5368 43.8375 52.6696 42.4965 56.184 39.8145C59.7909 37.1324 61.5943 33.2019 61.5943 28.0228C61.5943 22.7512 59.7909 18.7744 56.184 16.0923C52.6696 13.4103 47.5368 12.0693 40.7854 12.0693L13.7339 12.0693L13.7339 43.8375Z" fill="#7DA1B1"/>
</svg>
