<svg width="174" height="24" viewBox="0 0 174 24" fill="none" xmlns="http://www.w3.org/2000/svg">
<g clip-path="url(#clip0_433_2109)">
<path d="M16.5 6V17.5C16.5 19.71 14.71 21.5 12.5 21.5C10.29 21.5 8.5 19.71 8.5 17.5V5C8.5 3.62 9.62 2.5 11 2.5C12.38 2.5 13.5 3.62 13.5 5V15.5C13.5 16.05 13.05 16.5 12.5 16.5C11.95 16.5 11.5 16.05 11.5 15.5V6H10V15.5C10 16.88 11.12 18 12.5 18C13.88 18 15 16.88 15 15.5V5C15 2.79 13.21 1 11 1C8.79 1 7 2.79 7 5V17.5C7 20.54 9.46 23 12.5 23C15.54 23 18 20.54 18 17.5V6H16.5Z" fill="#7DA1B1"/>
</g>
<path d="M41.184 17.248V8.192H36.272L36.192 10.544C36.16 11.3333 36.1067 12.0907 36.032 12.816C35.968 13.5413 35.872 14.1973 35.744 14.784C35.616 15.36 35.4347 15.8347 35.2 16.208C34.976 16.5813 34.688 16.8107 34.336 16.896L32.608 16.608C33.024 16.64 33.3653 16.5013 33.632 16.192C33.9093 15.872 34.1227 15.4293 34.272 14.864C34.432 14.288 34.5493 13.6213 34.624 12.864C34.6987 12.096 34.752 11.2747 34.784 10.4L34.896 6.8H42.768V17.248H41.184ZM32.208 20.448L32.224 16.608H44.416V20.448H42.928V18H33.712L33.696 20.448H32.208ZM49.7919 18.096C48.9385 18.096 48.1812 17.9093 47.5199 17.536C46.8585 17.1627 46.3359 16.6507 45.9519 16C45.5679 15.3387 45.3759 14.592 45.3759 13.76C45.3759 12.9173 45.5679 12.1707 45.9519 11.52C46.3359 10.8693 46.8585 10.3627 47.5199 10C48.1812 9.62667 48.9385 9.44 49.7919 9.44C50.6345 9.44 51.3865 9.62667 52.0479 10C52.7199 10.3627 53.2425 10.8693 53.6159 11.52C53.9999 12.16 54.1919 12.9067 54.1919 13.76C54.1919 14.6027 53.9999 15.3493 53.6159 16C53.2425 16.6507 52.7199 17.1627 52.0479 17.536C51.3865 17.9093 50.6345 18.096 49.7919 18.096ZM49.7919 16.752C50.3359 16.752 50.8212 16.6293 51.2479 16.384C51.6852 16.1387 52.0265 15.792 52.2719 15.344C52.5172 14.8853 52.6399 14.3573 52.6399 13.76C52.6399 13.152 52.5172 12.6293 52.2719 12.192C52.0265 11.744 51.6852 11.3973 51.2479 11.152C50.8212 10.9067 50.3359 10.784 49.7919 10.784C49.2479 10.784 48.7625 10.9067 48.3359 11.152C47.9092 11.3973 47.5679 11.744 47.3119 12.192C47.0559 12.6293 46.9279 13.152 46.9279 13.76C46.9279 14.3573 47.0559 14.8853 47.3119 15.344C47.5679 15.792 47.9092 16.1387 48.3359 16.384C48.7625 16.6293 49.2479 16.752 49.7919 16.752ZM60.3299 18.128C59.6259 18.128 59.0019 18.016 58.4579 17.792C57.9245 17.568 57.4659 17.2373 57.0819 16.8C56.6979 16.352 56.4045 15.792 56.2019 15.12C56.0099 14.4373 55.9139 13.6373 55.9139 12.72C55.9139 11.9947 55.9779 11.344 56.1059 10.768C56.2339 10.192 56.4152 9.68 56.6499 9.232C56.8952 8.784 57.1939 8.39467 57.5459 8.064C57.9085 7.73333 58.3139 7.46133 58.7619 7.248C59.2205 7.024 59.7219 6.85333 60.2659 6.736L64.1379 5.872L64.3619 7.296L60.7939 8.064C60.5805 8.10667 60.3245 8.17067 60.0259 8.256C59.7272 8.34133 59.4232 8.47467 59.1139 8.656C58.8045 8.82667 58.5165 9.06667 58.2499 9.376C57.9832 9.68533 57.7699 10.0907 57.6099 10.592C57.4499 11.0827 57.3699 11.6907 57.3699 12.416C57.3699 12.6187 57.3752 12.7733 57.3859 12.88C57.3965 12.9867 57.4072 13.0933 57.4179 13.2C57.4392 13.3067 57.4552 13.4667 57.4659 13.68L56.8259 13.024C56.9965 12.4373 57.2685 11.9253 57.6419 11.488C58.0152 11.0507 58.4632 10.7147 58.9859 10.48C59.5192 10.2347 60.1005 10.112 60.7299 10.112C61.5192 10.112 62.2179 10.2827 62.8259 10.624C63.4445 10.9653 63.9299 11.4347 64.2819 12.032C64.6339 12.6293 64.8099 13.312 64.8099 14.08C64.8099 14.8587 64.6232 15.5573 64.2499 16.176C63.8872 16.784 63.3699 17.264 62.6979 17.616C62.0259 17.9573 61.2365 18.128 60.3299 18.128ZM60.4739 16.848C61.0179 16.848 61.4979 16.7307 61.9139 16.496C62.3299 16.2507 62.6552 15.9253 62.8899 15.52C63.1245 15.104 63.2419 14.64 63.2419 14.128C63.2419 13.616 63.1245 13.1627 62.8899 12.768C62.6552 12.3733 62.3299 12.064 61.9139 11.84C61.4979 11.6053 61.0072 11.488 60.4419 11.488C59.9085 11.488 59.4285 11.6 59.0019 11.824C58.5752 12.0373 58.2445 12.3413 58.0099 12.736C57.7752 13.12 57.6579 13.568 57.6579 14.08C57.6579 14.592 57.7752 15.0613 58.0099 15.488C58.2552 15.904 58.5859 16.2347 59.0019 16.48C59.4285 16.7253 59.9192 16.848 60.4739 16.848ZM72.1255 18V16.208L72.0455 15.872V12.816C72.0455 12.1653 71.8535 11.664 71.4695 11.312C71.0962 10.9493 70.5308 10.768 69.7735 10.768C69.2722 10.768 68.7815 10.8533 68.3015 11.024C67.8215 11.184 67.4162 11.4027 67.0855 11.68L66.4455 10.528C66.8828 10.176 67.4055 9.90933 68.0135 9.728C68.6322 9.536 69.2775 9.44 69.9495 9.44C71.1122 9.44 72.0082 9.72267 72.6375 10.288C73.2668 10.8533 73.5815 11.7173 73.5815 12.88V18H72.1255ZM69.3415 18.096C68.7122 18.096 68.1575 17.9893 67.6775 17.776C67.2082 17.5627 66.8455 17.2693 66.5895 16.896C66.3335 16.512 66.2055 16.08 66.2055 15.6C66.2055 15.1413 66.3122 14.7253 66.5255 14.352C66.7495 13.9787 67.1068 13.68 67.5975 13.456C68.0988 13.232 68.7708 13.12 69.6135 13.12H72.3015V14.224H69.6775C68.9095 14.224 68.3922 14.352 68.1255 14.608C67.8588 14.864 67.7255 15.1733 67.7255 15.536C67.7255 15.952 67.8908 16.288 68.2215 16.544C68.5522 16.7893 69.0108 16.912 69.5975 16.912C70.1735 16.912 70.6748 16.784 71.1015 16.528C71.5388 16.272 71.8535 15.8987 72.0455 15.408L72.3495 16.464C72.1468 16.9653 71.7895 17.3653 71.2775 17.664C70.7655 17.952 70.1202 18.096 69.3415 18.096ZM76.3474 18V9.52H80.2834C81.2754 9.52 82.054 9.712 82.6194 10.096C83.1954 10.4693 83.4834 11.0027 83.4834 11.696C83.4834 12.3893 83.2114 12.928 82.6674 13.312C82.134 13.6853 81.4247 13.872 80.5394 13.872L80.7794 13.456C81.7927 13.456 82.5447 13.6427 83.0354 14.016C83.526 14.3893 83.7714 14.9387 83.7714 15.664C83.7714 16.4 83.494 16.976 82.9394 17.392C82.3954 17.7973 81.558 18 80.4274 18H76.3474ZM77.8514 16.816H80.3154C80.9554 16.816 81.4354 16.72 81.7554 16.528C82.0754 16.3253 82.2354 16.0053 82.2354 15.568C82.2354 15.12 82.086 14.7947 81.7874 14.592C81.4994 14.3787 81.0407 14.272 80.4114 14.272H77.8514V16.816ZM77.8514 13.168H80.1554C80.742 13.168 81.1847 13.0613 81.4834 12.848C81.7927 12.624 81.9474 12.3147 81.9474 11.92C81.9474 11.5147 81.7927 11.2107 81.4834 11.008C81.1847 10.8053 80.742 10.704 80.1554 10.704H77.8514V13.168ZM86.1755 18V9.52H87.7115V15.696L92.9115 9.52H94.3035V18H92.7675V11.824L87.5835 18H86.1755ZM98.9649 18V10.464L99.3489 10.864H95.8609V9.52H103.605V10.864H100.133L100.501 10.464V18H98.9649ZM109.096 12.4C110.173 12.4107 110.994 12.656 111.56 13.136C112.125 13.616 112.408 14.2933 112.408 15.168C112.408 16.0853 112.098 16.7947 111.48 17.296C110.861 17.7867 109.986 18.0267 108.856 18.016L105.176 18V9.52H106.712V12.384L109.096 12.4ZM108.728 16.848C109.421 16.8587 109.944 16.72 110.296 16.432C110.658 16.144 110.84 15.7173 110.84 15.152C110.84 14.5973 110.664 14.192 110.312 13.936C109.96 13.68 109.432 13.5467 108.728 13.536L106.712 13.504V16.832L108.728 16.848ZM123.732 18.128C123.721 18.128 123.684 18.128 123.62 18.128C123.566 18.128 123.513 18.128 123.46 18.128C123.406 18.128 123.374 18.128 123.364 18.128C121.625 18.1067 120.276 17.7227 119.316 16.976C118.356 16.2187 117.876 15.1413 117.876 13.744C117.876 12.3573 118.356 11.296 119.316 10.56C120.286 9.81333 121.652 9.43467 123.412 9.424C123.433 9.424 123.465 9.424 123.508 9.424C123.561 9.424 123.609 9.424 123.652 9.424C123.705 9.424 123.737 9.424 123.748 9.424C125.529 9.424 126.91 9.79733 127.892 10.544C128.884 11.2907 129.38 12.3573 129.38 13.744C129.38 15.152 128.884 16.2347 127.892 16.992C126.9 17.7493 125.513 18.128 123.732 18.128ZM123.7 16.784C124.628 16.784 125.396 16.6667 126.003 16.432C126.622 16.1973 127.086 15.856 127.396 15.408C127.705 14.96 127.86 14.4053 127.86 13.744C127.86 13.0933 127.705 12.5493 127.396 12.112C127.086 11.6747 126.622 11.344 126.003 11.12C125.396 10.896 124.628 10.784 123.7 10.784C123.678 10.784 123.636 10.784 123.572 10.784C123.508 10.784 123.47 10.784 123.46 10.784C122.553 10.784 121.796 10.9013 121.188 11.136C120.59 11.36 120.142 11.6907 119.844 12.128C119.545 12.5653 119.396 13.104 119.396 13.744C119.396 14.3947 119.545 14.944 119.844 15.392C120.153 15.84 120.606 16.1813 121.204 16.416C121.812 16.6507 122.564 16.7733 123.46 16.784C123.481 16.784 123.518 16.784 123.572 16.784C123.636 16.784 123.678 16.784 123.7 16.784ZM122.868 21.104V6.128H124.372V21.104H122.868ZM136.672 18V16.208L136.592 15.872V12.816C136.592 12.1653 136.4 11.664 136.016 11.312C135.643 10.9493 135.078 10.768 134.32 10.768C133.819 10.768 133.328 10.8533 132.848 11.024C132.368 11.184 131.963 11.4027 131.632 11.68L130.992 10.528C131.43 10.176 131.952 9.90933 132.56 9.728C133.179 9.536 133.824 9.44 134.496 9.44C135.659 9.44 136.555 9.72267 137.184 10.288C137.814 10.8533 138.128 11.7173 138.128 12.88V18H136.672ZM133.888 18.096C133.259 18.096 132.704 17.9893 132.224 17.776C131.755 17.5627 131.392 17.2693 131.136 16.896C130.88 16.512 130.752 16.08 130.752 15.6C130.752 15.1413 130.859 14.7253 131.072 14.352C131.296 13.9787 131.654 13.68 132.144 13.456C132.646 13.232 133.318 13.12 134.16 13.12H136.848V14.224H134.224C133.456 14.224 132.939 14.352 132.672 14.608C132.406 14.864 132.272 15.1733 132.272 15.536C132.272 15.952 132.438 16.288 132.768 16.544C133.099 16.7893 133.558 16.912 134.144 16.912C134.72 16.912 135.222 16.784 135.648 16.528C136.086 16.272 136.4 15.8987 136.592 15.408L136.896 16.464C136.694 16.9653 136.336 17.3653 135.824 17.664C135.312 17.952 134.667 18.096 133.888 18.096ZM140.894 18V9.52H142.43V15.696L147.63 9.52H149.022V18H147.486V11.824L142.302 18H140.894ZM144.862 8.416C144.084 8.416 143.47 8.22933 143.022 7.856C142.585 7.472 142.361 6.92267 142.35 6.208H143.39C143.401 6.61333 143.534 6.93333 143.79 7.168C144.057 7.40267 144.409 7.52 144.846 7.52C145.284 7.52 145.636 7.40267 145.902 7.168C146.169 6.93333 146.308 6.61333 146.318 6.208H147.39C147.38 6.92267 147.15 7.472 146.702 7.856C146.254 8.22933 145.641 8.416 144.862 8.416ZM150.596 17.984L150.692 16.688C150.766 16.6987 150.836 16.7093 150.9 16.72C150.964 16.7307 151.022 16.736 151.076 16.736C151.417 16.736 151.684 16.6187 151.876 16.384C152.078 16.1493 152.228 15.84 152.324 15.456C152.42 15.0613 152.489 14.6187 152.532 14.128C152.574 13.6373 152.606 13.1467 152.628 12.656L152.772 9.52H159.284V18H157.748V10.416L158.116 10.864H153.764L154.116 10.4L154.004 12.752C153.972 13.4987 153.913 14.1973 153.828 14.848C153.742 15.4987 153.609 16.0693 153.428 16.56C153.257 17.0507 153.017 17.4347 152.708 17.712C152.409 17.9893 152.02 18.128 151.54 18.128C151.401 18.128 151.252 18.112 151.092 18.08C150.942 18.0587 150.777 18.0267 150.596 17.984ZM170.638 18V9.52H172.174V18H170.638ZM166.078 12.4C167.155 12.4107 167.971 12.656 168.526 13.136C169.091 13.616 169.374 14.2933 169.374 15.168C169.374 16.0853 169.064 16.7947 168.446 17.296C167.838 17.7867 166.963 18.0267 165.822 18.016L162.254 18V9.52H163.79V12.384L166.078 12.4ZM165.71 16.848C166.392 16.8587 166.915 16.72 167.278 16.432C167.64 16.144 167.822 15.7173 167.822 15.152C167.822 14.5973 167.64 14.192 167.278 13.936C166.926 13.68 166.403 13.5467 165.71 13.536L163.79 13.504V16.832L165.71 16.848Z" fill="#7DA1B1"/>
<defs>
<clipPath id="clip0_433_2109">
<rect width="24" height="24" fill="white"/>
</clipPath>
</defs>
</svg>
