<svg width="231" height="40" viewBox="0 0 231 40" fill="none" xmlns="http://www.w3.org/2000/svg">
<path d="M0 0H231V40H0V0Z" fill="#7DA1B1"/>
<path d="M218.2 34.24C216.387 34.24 214.747 33.8399 213.28 33.0399C211.84 32.2133 210.694 30.9999 209.84 29.3999C209.014 27.7999 208.6 25.7999 208.6 23.3999C208.6 20.9999 209.027 18.9999 209.88 17.3999C210.76 15.7999 211.92 14.5999 213.36 13.7999C214.827 12.9999 216.44 12.5999 218.2 12.5999C220.28 12.5999 222.12 13.0533 223.72 13.9599C225.32 14.8666 226.587 16.1333 227.52 17.7599C228.454 19.3599 228.92 21.2399 228.92 23.3999C228.92 25.5599 228.454 27.4533 227.52 29.0799C226.587 30.7066 225.32 31.9733 223.72 32.8799C222.12 33.7866 220.28 34.24 218.2 34.24ZM206.96 33.9999V4.31995H210.8V18.4399L210.4 23.3599L210.64 28.2799V33.9999H206.96ZM217.88 30.8799C219.24 30.8799 220.454 30.5733 221.52 29.9599C222.614 29.3466 223.467 28.4799 224.08 27.3599C224.72 26.2133 225.04 24.8933 225.04 23.3999C225.04 21.8799 224.72 20.5733 224.08 19.4799C223.467 18.3599 222.614 17.4933 221.52 16.8799C220.454 16.2666 219.24 15.9599 217.88 15.9599C216.547 15.9599 215.334 16.2666 214.24 16.8799C213.174 17.4933 212.32 18.3599 211.68 19.4799C211.067 20.5733 210.76 21.8799 210.76 23.3999C210.76 24.8933 211.067 26.2133 211.68 27.3599C212.32 28.4799 213.174 29.3466 214.24 29.9599C215.334 30.5733 216.547 30.8799 217.88 30.8799Z" fill="white"/>
<path d="M196.214 34V29.52L196.014 28.68V21.04C196.014 19.4133 195.534 18.16 194.574 17.28C193.641 16.3733 192.227 15.92 190.334 15.92C189.081 15.92 187.854 16.1333 186.654 16.56C185.454 16.96 184.441 17.5066 183.614 18.2L182.014 15.32C183.107 14.44 184.414 13.7733 185.934 13.32C187.481 12.84 189.094 12.6 190.774 12.6C193.681 12.6 195.921 13.3066 197.494 14.72C199.067 16.1333 199.854 18.2933 199.854 21.2V34H196.214ZM189.254 34.24C187.681 34.24 186.294 33.9733 185.094 33.44C183.921 32.9066 183.014 32.1733 182.374 31.24C181.734 30.28 181.414 29.2 181.414 28C181.414 26.8533 181.681 25.8133 182.214 24.88C182.774 23.9466 183.667 23.2 184.894 22.64C186.147 22.08 187.827 21.8 189.934 21.8H196.654V24.56H190.094C188.174 24.56 186.881 24.88 186.214 25.52C185.547 26.16 185.214 26.9333 185.214 27.84C185.214 28.88 185.627 29.72 186.454 30.36C187.281 30.9733 188.427 31.28 189.894 31.28C191.334 31.28 192.587 30.96 193.654 30.32C194.747 29.68 195.534 28.7466 196.014 27.52L196.774 30.16C196.267 31.4133 195.374 32.4133 194.094 33.16C192.814 33.88 191.201 34.24 189.254 34.24Z" fill="white"/>
<path d="M171.882 33.9999V4.31995H175.722V33.9999H171.882Z" fill="white"/>
<path d="M160.71 33.9999V4.31995H164.55V33.9999H160.71Z" fill="white"/>
<path d="M144.4 34.24C142.266 34.24 140.373 33.7733 138.72 32.84C137.066 31.9066 135.76 30.6266 134.8 29C133.84 27.3466 133.36 25.48 133.36 23.4C133.36 21.2933 133.84 19.4266 134.8 17.8C135.76 16.1733 137.066 14.9066 138.72 14C140.373 13.0666 142.266 12.6 144.4 12.6C146.506 12.6 148.386 13.0666 150.04 14C151.72 14.9066 153.026 16.1733 153.96 17.8C154.92 19.4 155.4 21.2666 155.4 23.4C155.4 25.5066 154.92 27.3733 153.96 29C153.026 30.6266 151.72 31.9066 150.04 32.84C148.386 33.7733 146.506 34.24 144.4 34.24ZM144.4 30.88C145.76 30.88 146.973 30.5733 148.04 29.96C149.133 29.3466 149.986 28.48 150.6 27.36C151.213 26.2133 151.52 24.8933 151.52 23.4C151.52 21.88 151.213 20.5733 150.6 19.48C149.986 18.36 149.133 17.4933 148.04 16.88C146.973 16.2666 145.76 15.96 144.4 15.96C143.04 15.96 141.826 16.2666 140.76 16.88C139.693 17.4933 138.84 18.36 138.2 19.48C137.56 20.5733 137.24 21.88 137.24 23.4C137.24 24.8933 137.56 26.2133 138.2 27.36C138.84 28.48 139.693 29.3466 140.76 29.96C141.826 30.5733 143.04 30.88 144.4 30.88Z" fill="white"/>
<path d="M120.392 34.3201C118.259 34.3201 116.285 33.9734 114.472 33.2801C112.685 32.5601 111.125 31.5601 109.792 30.2801C108.485 28.9734 107.459 27.4534 106.712 25.7201C105.965 23.9867 105.592 22.0801 105.592 20.0001C105.592 17.9201 105.965 16.0134 106.712 14.2801C107.459 12.5467 108.499 11.0401 109.832 9.76005C111.165 8.45339 112.725 7.45339 114.512 6.76005C116.325 6.04005 118.299 5.68005 120.432 5.68005C122.592 5.68005 124.579 6.05339 126.392 6.80005C128.232 7.52005 129.792 8.60005 131.072 10.0401L128.472 12.5601C127.405 11.4401 126.205 10.6134 124.872 10.0801C123.539 9.52005 122.112 9.24005 120.592 9.24005C119.019 9.24005 117.552 9.50672 116.192 10.0401C114.859 10.5734 113.699 11.3201 112.712 12.2801C111.725 13.2401 110.952 14.3867 110.392 15.7201C109.859 17.0267 109.592 18.4534 109.592 20.0001C109.592 21.5467 109.859 22.9867 110.392 24.3201C110.952 25.6267 111.725 26.7601 112.712 27.7201C113.699 28.6801 114.859 29.4267 116.192 29.9601C117.552 30.4934 119.019 30.7601 120.592 30.7601C122.112 30.7601 123.539 30.4934 124.872 29.9601C126.205 29.4001 127.405 28.5467 128.472 27.4001L131.072 29.9201C129.792 31.3601 128.232 32.4534 126.392 33.2001C124.579 33.9467 122.579 34.3201 120.392 34.3201Z" fill="white"/>
<path d="M96.14 33.9999V4.31995H99.98V33.9999H96.14Z" fill="white"/>
<path d="M79.8294 34.24C77.696 34.24 75.8027 33.7733 74.1494 32.84C72.496 31.9066 71.1894 30.6266 70.2294 29C69.2694 27.3466 68.7894 25.48 68.7894 23.4C68.7894 21.2933 69.2694 19.4266 70.2294 17.8C71.1894 16.1733 72.496 14.9066 74.1494 14C75.8027 13.0666 77.696 12.6 79.8294 12.6C81.936 12.6 83.816 13.0666 85.4694 14C87.1494 14.9066 88.456 16.1733 89.3894 17.8C90.3494 19.4 90.8294 21.2666 90.8294 23.4C90.8294 25.5066 90.3494 27.3733 89.3894 29C88.456 30.6266 87.1494 31.9066 85.4694 32.84C83.816 33.7733 81.936 34.24 79.8294 34.24ZM79.8294 30.88C81.1894 30.88 82.4027 30.5733 83.4694 29.96C84.5627 29.3466 85.416 28.48 86.0294 27.36C86.6427 26.2133 86.9494 24.8933 86.9494 23.4C86.9494 21.88 86.6427 20.5733 86.0294 19.48C85.416 18.36 84.5627 17.4933 83.4694 16.88C82.4027 16.2666 81.1894 15.96 79.8294 15.96C78.4694 15.96 77.256 16.2666 76.1894 16.88C75.1227 17.4933 74.2694 18.36 73.6294 19.48C72.9894 20.5733 72.6694 21.88 72.6694 23.4C72.6694 24.8933 72.9894 26.2133 73.6294 27.36C74.2694 28.48 75.1227 29.3466 76.1894 29.96C77.256 30.5733 78.4694 30.88 79.8294 30.88Z" fill="white"/>
<path d="M55.0037 12.6C56.7104 12.6 58.2171 12.9333 59.5238 13.6C60.8304 14.2666 61.8438 15.28 62.5638 16.64C63.3104 18 63.6838 19.72 63.6838 21.8V34H59.8438V22.24C59.8438 20.1866 59.3638 18.64 58.4038 17.6C57.4438 16.56 56.0971 16.04 54.3638 16.04C53.0838 16.04 51.9638 16.3066 51.0038 16.84C50.0438 17.3733 49.2971 18.16 48.7638 19.2C48.2571 20.24 48.0038 21.5333 48.0038 23.08V34H44.1637V22.24C44.1637 20.1866 43.6838 18.64 42.7238 17.6C41.7904 16.56 40.4438 16.04 38.6838 16.04C37.4304 16.04 36.3238 16.3066 35.3638 16.84C34.4038 17.3733 33.6571 18.16 33.1237 19.2C32.5904 20.24 32.3237 21.5333 32.3237 23.08V34H28.4837V12.8H32.1637V18.44L31.5638 17C32.2304 15.6133 33.2571 14.5333 34.6437 13.76C36.0304 12.9866 37.6437 12.6 39.4837 12.6C41.5104 12.6 43.2571 13.1066 44.7238 14.12C46.1904 15.1066 47.1504 16.6133 47.6038 18.64L46.0438 18C46.6838 16.3733 47.8038 15.0666 49.4038 14.08C51.0038 13.0933 52.8704 12.6 55.0037 12.6Z" fill="white"/>
<path d="M12.36 34.3201C10.2267 34.3201 8.18667 34.0001 6.24 33.3601C4.29333 32.6934 2.76 31.8401 1.64 30.8001L3.12 27.6801C4.18667 28.6134 5.54667 29.3867 7.2 30.0001C8.85333 30.6134 10.5733 30.9201 12.36 30.9201C13.9867 30.9201 15.3067 30.7334 16.32 30.3601C17.3333 29.9867 18.08 29.4801 18.56 28.8401C19.04 28.1734 19.28 27.4267 19.28 26.6001C19.28 25.6401 18.96 24.8667 18.32 24.2801C17.7067 23.6934 16.8933 23.2267 15.88 22.8801C14.8933 22.5067 13.8 22.1867 12.6 21.9201C11.4 21.6534 10.1867 21.3467 8.96 21.0001C7.76 20.6267 6.65333 20.1601 5.64 19.6001C4.65333 19.0401 3.85333 18.2934 3.24 17.3601C2.62667 16.4001 2.32 15.1734 2.32 13.6801C2.32 12.2401 2.69333 10.9201 3.44 9.72005C4.21333 8.49338 5.38667 7.52005 6.96 6.80005C8.56 6.05339 10.5867 5.68005 13.04 5.68005C14.6667 5.68005 16.28 5.89339 17.88 6.32005C19.48 6.74672 20.8667 7.36005 22.04 8.16005L20.72 11.3601C19.52 10.5601 18.2533 9.98672 16.92 9.64005C15.5867 9.26672 14.2933 9.08005 13.04 9.08005C11.4667 9.08005 10.1733 9.28005 9.16 9.68005C8.14667 10.0801 7.4 10.6134 6.92 11.2801C6.46667 11.9467 6.24 12.6934 6.24 13.5201C6.24 14.5067 6.54667 15.2934 7.16 15.8801C7.8 16.4667 8.61333 16.9334 9.6 17.2801C10.6133 17.6267 11.72 17.9467 12.92 18.2401C14.12 18.5067 15.32 18.8134 16.52 19.1601C17.7467 19.5067 18.8533 19.9601 19.84 20.5201C20.8533 21.0801 21.6667 21.8267 22.28 22.7601C22.8933 23.6934 23.2 24.8934 23.2 26.3601C23.2 27.7734 22.8133 29.0934 22.04 30.3201C21.2667 31.5201 20.0667 32.4934 18.44 33.2401C16.84 33.9601 14.8133 34.3201 12.36 34.3201Z" fill="white"/>
</svg>
