<svg width="148" height="20" viewBox="0 0 148 20" fill="none" xmlns="http://www.w3.org/2000/svg">
<path d="M0 0H116.667V20H0V0Z" fill="#7DA1B1"/>
<path d="M110.202 17.1199C109.286 17.1199 108.458 16.9199 107.717 16.5199C106.99 16.1066 106.411 15.4999 105.98 14.6999C105.562 13.8999 105.354 12.8999 105.354 11.6999C105.354 10.4999 105.569 9.49991 106 8.69991C106.445 7.89991 107.03 7.29991 107.758 6.89991C108.498 6.49991 109.313 6.29991 110.202 6.29991C111.253 6.29991 112.182 6.52658 112.99 6.97991C113.798 7.43325 114.438 8.06658 114.909 8.87991C115.381 9.67991 115.616 10.6199 115.616 11.6999C115.616 12.7799 115.381 13.7266 114.909 14.5399C114.438 15.3532 113.798 15.9866 112.99 16.4399C112.182 16.8932 111.253 17.1199 110.202 17.1199ZM104.525 16.9999V2.15991H106.465V9.21991L106.263 11.6799L106.384 14.1399V16.9999H104.525ZM110.041 15.4399C110.727 15.4399 111.34 15.2866 111.879 14.9799C112.431 14.6732 112.862 14.2399 113.172 13.6799C113.495 13.1066 113.657 12.4466 113.657 11.6999C113.657 10.9399 113.495 10.2866 113.172 9.73991C112.862 9.17991 112.431 8.74658 111.879 8.43991C111.34 8.13325 110.727 7.97991 110.041 7.97991C109.367 7.97991 108.754 8.13325 108.202 8.43991C107.663 8.74658 107.232 9.17991 106.909 9.73991C106.599 10.2866 106.445 10.9399 106.445 11.6999C106.445 12.4466 106.599 13.1066 106.909 13.6799C107.232 14.2399 107.663 14.6732 108.202 14.9799C108.754 15.2866 109.367 15.4399 110.041 15.4399Z" fill="white"/>
<path d="M99.098 16.9999V14.7599L98.997 14.3399V10.5199C98.997 9.70659 98.7546 9.07993 98.2697 8.63993C97.7983 8.18659 97.0845 7.95993 96.1283 7.95993C95.4953 7.95993 94.8758 8.06659 94.2697 8.27993C93.6637 8.47993 93.1519 8.75326 92.7344 9.09993L91.9263 7.65993C92.4785 7.21993 93.1384 6.88659 93.9061 6.65993C94.6872 6.41993 95.502 6.29993 96.3505 6.29993C97.8185 6.29993 98.9499 6.65326 99.7445 7.35993C100.539 8.06659 100.936 9.14659 100.936 10.5999V16.9999H99.098ZM95.5829 17.1199C94.7882 17.1199 94.0879 16.9866 93.4818 16.7199C92.8893 16.4533 92.4313 16.0866 92.1081 15.6199C91.7849 15.1399 91.6233 14.5999 91.6233 13.9999C91.6233 13.4266 91.7579 12.9066 92.0273 12.4399C92.3101 11.9733 92.7613 11.5999 93.3808 11.3199C94.0138 11.0399 94.8623 10.8999 95.9263 10.8999H99.3202V12.2799H96.0071C95.0374 12.2799 94.3842 12.4399 94.0475 12.7599C93.7108 13.0799 93.5425 13.4666 93.5425 13.9199C93.5425 14.4399 93.7512 14.8599 94.1687 15.1799C94.5862 15.4866 95.1653 15.6399 95.9061 15.6399C96.6334 15.6399 97.2664 15.4799 97.8051 15.1599C98.3573 14.8399 98.7546 14.3733 98.997 13.7599L99.3808 15.0799C99.1249 15.7066 98.6738 16.2066 98.0273 16.5799C97.3808 16.9399 96.566 17.1199 95.5829 17.1199Z" fill="white"/>
<path d="M86.8092 16.9999V2.15991H88.7486V16.9999H86.8092Z" fill="white"/>
<path d="M81.1668 16.9999V2.15991H83.1062V16.9999H81.1668Z" fill="white"/>
<path d="M72.9291 17.1199C71.8517 17.1199 70.8955 16.8866 70.0604 16.4199C69.2254 15.9533 68.5655 15.3133 68.0806 14.4999C67.5958 13.6733 67.3534 12.7399 67.3534 11.6999C67.3534 10.6466 67.5958 9.71326 68.0806 8.89993C68.5655 8.08659 69.2254 7.45326 70.0604 6.99993C70.8955 6.53326 71.8517 6.29993 72.9291 6.29993C73.9931 6.29993 74.9426 6.53326 75.7776 6.99993C76.6261 7.45326 77.286 8.08659 77.7574 8.89993C78.2423 9.69993 78.4847 10.6333 78.4847 11.6999C78.4847 12.7533 78.2423 13.6866 77.7574 14.4999C77.286 15.3133 76.6261 15.9533 75.7776 16.4199C74.9426 16.8866 73.9931 17.1199 72.9291 17.1199ZM72.9291 15.4399C73.616 15.4399 74.2288 15.2866 74.7675 14.9799C75.3197 14.6733 75.7507 14.2399 76.0604 13.6799C76.3702 13.1066 76.5251 12.4466 76.5251 11.6999C76.5251 10.9399 76.3702 10.2866 76.0604 9.73993C75.7507 9.17993 75.3197 8.74659 74.7675 8.43993C74.2288 8.13326 73.616 7.97993 72.9291 7.97993C72.2423 7.97993 71.6295 8.13326 71.0907 8.43993C70.552 8.74659 70.1211 9.17993 69.7978 9.73993C69.4746 10.2866 69.313 10.9399 69.313 11.6999C69.313 12.4466 69.4746 13.1066 69.7978 13.6799C70.1211 14.2399 70.552 14.6733 71.0907 14.9799C71.6295 15.2866 72.2423 15.4399 72.9291 15.4399Z" fill="white"/>
<path d="M60.804 17.16C59.7265 17.16 58.7299 16.9866 57.8141 16.64C56.9117 16.28 56.1238 15.78 55.4504 15.14C54.7905 14.4866 54.272 13.7266 53.8949 12.86C53.5178 11.9933 53.3292 11.04 53.3292 9.99997C53.3292 8.95997 53.5178 8.00663 53.8949 7.13997C54.272 6.2733 54.7972 5.51997 55.4706 4.87997C56.144 4.22663 56.9319 3.72663 57.8343 3.37996C58.7501 3.01997 59.7467 2.83997 60.8242 2.83997C61.9151 2.83997 62.9184 3.02663 63.8343 3.39997C64.7636 3.75997 65.5514 4.29997 66.1979 5.01997L64.8848 6.27997C64.3461 5.71997 63.74 5.30663 63.0666 5.03996C62.3932 4.75997 61.6727 4.61997 60.905 4.61997C60.1104 4.61997 59.3696 4.7533 58.6828 5.01997C58.0094 5.28663 57.4235 5.65997 56.9252 6.13997C56.4269 6.61997 56.0363 7.1933 55.7535 7.85997C55.4841 8.5133 55.3494 9.22663 55.3494 9.99997C55.3494 10.7733 55.4841 11.4933 55.7535 12.16C56.0363 12.8133 56.4269 13.38 56.9252 13.86C57.4235 14.34 58.0094 14.7133 58.6828 14.98C59.3696 15.2466 60.1104 15.38 60.905 15.38C61.6727 15.38 62.3932 15.2466 63.0666 14.98C63.74 14.7 64.3461 14.2733 64.8848 13.7L66.1979 14.96C65.5514 15.68 64.7636 16.2266 63.8343 16.6C62.9184 16.9733 61.9083 17.16 60.804 17.16Z" fill="white"/>
<path d="M48.5556 16.9999V2.15991H50.495V16.9999H48.5556Z" fill="white"/>
<path d="M40.3179 17.1199C39.2404 17.1199 38.2842 16.8866 37.4492 16.4199C36.6142 15.9533 35.9542 15.3133 35.4694 14.4999C34.9845 13.6733 34.7421 12.7399 34.7421 11.6999C34.7421 10.6466 34.9845 9.71326 35.4694 8.89993C35.9542 8.08659 36.6142 7.45326 37.4492 6.99993C38.2842 6.53326 39.2404 6.29993 40.3179 6.29993C41.3818 6.29993 42.3313 6.53326 43.1663 6.99993C44.0148 7.45326 44.6748 8.08659 45.1461 8.89993C45.631 9.69993 45.8734 10.6333 45.8734 11.6999C45.8734 12.7533 45.631 13.6866 45.1461 14.4999C44.6748 15.3133 44.0148 15.9533 43.1663 16.4199C42.3313 16.8866 41.3818 17.1199 40.3179 17.1199ZM40.3179 15.4399C41.0047 15.4399 41.6175 15.2866 42.1562 14.9799C42.7084 14.6733 43.1394 14.2399 43.4492 13.6799C43.7589 13.1066 43.9138 12.4466 43.9138 11.6999C43.9138 10.9399 43.7589 10.2866 43.4492 9.73993C43.1394 9.17993 42.7084 8.74659 42.1562 8.43993C41.6175 8.13326 41.0047 7.97993 40.3179 7.97993C39.631 7.97993 39.0182 8.13326 38.4795 8.43993C37.9408 8.74659 37.5098 9.17993 37.1865 9.73993C36.8633 10.2866 36.7017 10.9399 36.7017 11.6999C36.7017 12.4466 36.8633 13.1066 37.1865 13.6799C37.5098 14.2399 37.9408 14.6733 38.4795 14.9799C39.0182 15.2866 39.631 15.4399 40.3179 15.4399Z" fill="white"/>
<path d="M27.7797 6.29993C28.6416 6.29993 29.4026 6.46659 30.0625 6.79993C30.7224 7.13326 31.2342 7.63993 31.5979 8.31993C31.975 8.99993 32.1635 9.85993 32.1635 10.8999V16.9999H30.2241V11.1199C30.2241 10.0933 29.9817 9.31993 29.4968 8.79993C29.012 8.27993 28.3319 8.01993 27.4564 8.01993C26.81 8.01993 26.2443 8.15326 25.7595 8.41993C25.2746 8.68659 24.8975 9.07993 24.6282 9.59993C24.3723 10.1199 24.2443 10.7666 24.2443 11.5399V16.9999H22.3049V11.1199C22.3049 10.0933 22.0625 9.31993 21.5776 8.79993C21.1063 8.27993 20.4261 8.01993 19.5372 8.01993C18.9042 8.01993 18.3453 8.15326 17.8605 8.41993C17.3756 8.68659 16.9985 9.07993 16.7292 9.59993C16.4598 10.1199 16.3251 10.7666 16.3251 11.5399V16.9999H14.3857V6.39993H16.2443V9.21993L15.9413 8.49993C16.278 7.80659 16.7965 7.26659 17.4968 6.87993C18.1972 6.49326 19.012 6.29993 19.9413 6.29993C20.9649 6.29993 21.847 6.55326 22.5877 7.05993C23.3285 7.55326 23.8133 8.30659 24.0423 9.31993L23.2544 8.99993C23.5776 8.18659 24.1433 7.53326 24.9514 7.03993C25.7595 6.54659 26.7022 6.29993 27.7797 6.29993Z" fill="white"/>
<path d="M6.24242 17.16C5.16498 17.16 4.13468 17 3.15151 16.68C2.16835 16.3466 1.39393 15.92 0.828278 15.4L1.57575 13.84C2.11447 14.3066 2.80134 14.6933 3.63636 15C4.47138 15.3066 5.34006 15.46 6.24242 15.46C7.06397 15.46 7.73064 15.3666 8.24242 15.18C8.7542 14.9933 9.13131 14.74 9.37373 14.42C9.61616 14.0866 9.73737 13.7133 9.73737 13.3C9.73737 12.82 9.57575 12.4333 9.25252 12.14C8.94276 11.8466 8.53198 11.6133 8.0202 11.44C7.52188 11.2533 6.96969 11.0933 6.36363 10.96C5.75757 10.8266 5.14478 10.6733 4.52525 10.5C3.91919 10.3133 3.36026 10.08 2.84848 9.79996C2.35016 9.51997 1.94612 9.14663 1.63636 8.67997C1.32659 8.19997 1.17171 7.58663 1.17171 6.83997C1.17171 6.11997 1.36026 5.45996 1.73737 4.85996C2.12794 4.24663 2.72053 3.75997 3.51515 3.39997C4.32323 3.02663 5.3468 2.83997 6.58585 2.83997C7.4074 2.83997 8.22222 2.94663 9.0303 3.15997C9.83838 3.3733 10.5387 3.67996 11.1313 4.07997L10.4646 5.67997C9.85858 5.27997 9.21885 4.9933 8.54545 4.81997C7.87205 4.6333 7.21885 4.53997 6.58585 4.53997C5.79124 4.53997 5.13804 4.63997 4.62626 4.83997C4.11447 5.03996 3.73737 5.30663 3.49494 5.63997C3.26599 5.9733 3.15151 6.34663 3.15151 6.75997C3.15151 7.2533 3.30639 7.64663 3.61616 7.93997C3.93939 8.2333 4.35016 8.46663 4.84848 8.63997C5.36026 8.8133 5.91919 8.9733 6.52525 9.11997C7.13131 9.2533 7.73737 9.40663 8.34343 9.57997C8.96296 9.7533 9.52188 9.97997 10.0202 10.26C10.532 10.54 10.9428 10.9133 11.2525 11.38C11.5623 11.8466 11.7172 12.4466 11.7172 13.18C11.7172 13.8866 11.5219 14.5466 11.1313 15.16C10.7407 15.76 10.1347 16.2466 9.31313 16.62C8.50505 16.98 7.48148 17.16 6.24242 17.16Z" fill="white"/>
<rect x="128" y="10" width="14.1421" height="14.1421" transform="rotate(-45 128 10)" fill="#F0E262"/>
</svg>
