<svg width="402" height="20" viewBox="0 0 402 20" fill="none" xmlns="http://www.w3.org/2000/svg">
<path d="M399.409 18.7192V12.691L400.096 13.3255H394.306C392.808 13.3255 391.512 13.0699 390.42 12.5588C389.344 12.0476 388.516 11.3161 387.934 10.3643C387.37 9.39482 387.088 8.23147 387.088 6.87423C387.088 5.46411 387.397 4.26551 388.014 3.27843C388.63 2.27372 389.503 1.51578 390.631 1.00462C391.759 0.475823 393.072 0.211426 394.571 0.211426H402V18.7192H399.409ZM387.088 18.7192L391.662 12.1622H394.359L389.891 18.7192H387.088ZM399.409 11.8449V1.74493L400.096 2.51168H394.676C393.09 2.51168 391.874 2.88184 391.028 3.62215C390.182 4.34483 389.759 5.42005 389.759 6.84779C389.759 8.20503 390.155 9.2538 390.948 9.99412C391.759 10.7344 392.949 11.1046 394.518 11.1046H400.096L399.409 11.8449Z" fill="#7DA1B1"/>
<path d="M366.676 18.9307C366.411 18.9307 366.147 18.9131 365.882 18.8779C365.618 18.8426 365.327 18.7897 365.01 18.7192L365.195 16.3661C365.477 16.4366 365.759 16.4718 366.041 16.4718C366.817 16.4718 367.433 16.1634 367.892 15.5465C368.35 14.9295 368.685 13.9953 368.896 12.7438C369.126 11.4924 369.275 9.9148 369.346 8.01114L369.637 0.211426H382.672V18.7192H380.08V1.82425L380.715 2.51168H371.329L371.911 1.79781L371.699 7.93182C371.646 9.76497 371.523 11.369 371.329 12.7438C371.135 14.1187 370.844 15.2644 370.456 16.181C370.069 17.0976 369.566 17.785 368.949 18.2433C368.35 18.7016 367.592 18.9307 366.676 18.9307Z" fill="#7DA1B1"/>
<path d="M353.981 18.9308C352.571 18.9308 351.258 18.6929 350.042 18.217C348.843 17.741 347.803 17.08 346.922 16.234C346.04 15.3703 345.353 14.3656 344.859 13.2199C344.366 12.0741 344.119 10.8227 344.119 9.46541C344.119 8.10818 344.366 6.8567 344.859 5.71097C345.353 4.56525 346.04 3.56936 346.922 2.72329C347.803 1.85959 348.843 1.18979 350.042 0.713871C351.24 0.237957 352.553 0 353.981 0C355.391 0 356.687 0.237957 357.868 0.713871C359.066 1.17216 360.106 1.83315 360.988 2.69685C361.887 3.54292 362.574 4.53881 363.05 5.68454C363.544 6.83026 363.79 8.09055 363.79 9.46541C363.79 10.8403 363.544 12.1006 363.05 13.2463C362.574 14.392 361.887 15.3967 360.988 16.2604C360.106 17.1065 359.066 17.7675 357.868 18.2434C356.687 18.7017 355.391 18.9308 353.981 18.9308ZM353.981 16.5777C355.003 16.5777 355.947 16.4014 356.81 16.0489C357.692 15.6964 358.449 15.2028 359.084 14.5683C359.736 13.9161 360.239 13.1582 360.591 12.2945C360.961 11.4308 361.146 10.4877 361.146 9.46541C361.146 8.44308 360.961 7.50006 360.591 6.63637C360.239 5.77267 359.736 5.02354 359.084 4.38899C358.449 3.73681 357.692 3.23446 356.81 2.88193C355.947 2.5294 355.003 2.35313 353.981 2.35313C352.941 2.35313 351.981 2.5294 351.099 2.88193C350.236 3.23446 349.478 3.73681 348.825 4.38899C348.173 5.02354 347.662 5.77267 347.292 6.63637C346.939 7.50006 346.763 8.44308 346.763 9.46541C346.763 10.4877 346.939 11.4308 347.292 12.2945C347.662 13.1582 348.173 13.9161 348.825 14.5683C349.478 15.2028 350.236 15.6964 351.099 16.0489C351.981 16.4014 352.941 16.5777 353.981 16.5777Z" fill="#7DA1B1"/>
<path d="M326.778 18.7192V0.211426H333.996C335.618 0.211426 337.002 0.46701 338.147 0.978178C339.293 1.48935 340.174 2.22966 340.791 3.19911C341.408 4.16857 341.717 5.3231 341.717 6.66271C341.717 8.00233 341.408 9.15686 340.791 10.1263C340.174 11.0781 339.293 11.8185 338.147 12.3472C337.002 12.8584 335.618 13.114 333.996 13.114H328.232L329.422 11.8713V18.7192H326.778ZM329.422 12.1357L328.232 10.8137H333.917C335.609 10.8137 336.887 10.4524 337.751 9.72972C338.632 9.00703 339.073 7.9847 339.073 6.66271C339.073 5.34073 338.632 4.31839 337.751 3.59571C336.887 2.87302 335.609 2.51168 333.917 2.51168H328.232L329.422 1.18969V12.1357Z" fill="#7DA1B1"/>
<path d="M304.177 18.7192L312.559 0.211426H315.176L323.584 18.7192H320.808L313.325 1.69205H314.383L306.901 18.7192H304.177ZM307.747 14.0923L308.46 11.9771H318.878L319.644 14.0923H307.747Z" fill="#7DA1B1"/>
<path d="M285.027 18.7192V0.211426H300.97V18.7192H298.379V1.82425L299.014 2.51168H286.984L287.645 1.82425V18.7192H285.027Z" fill="#7DA1B1"/>
<path d="M262.749 8.19622H272.267V10.4436H262.749V8.19622ZM262.987 16.419H273.775V18.7192H260.343V0.211426H273.404V2.51168H262.987V16.419Z" fill="#7DA1B1"/>
<path d="M238.577 18.7192V0.211426H241.195V14.4889L252.141 0.211426H254.573V18.7192H251.982V4.46822L241.01 18.7192H238.577Z" fill="#7DA1B1"/>
<path d="M230.161 0.211426H232.805V18.7192H230.161V0.211426ZM219.532 18.7192H216.888V0.211426H219.532V18.7192ZM230.399 10.47H219.268V8.16978H230.399V10.47Z" fill="#7DA1B1"/>
<path d="M201.711 8.19622H211.229V10.4436H201.711V8.19622ZM201.949 16.419H212.736V18.7192H199.305V0.211426H212.366V2.51168H201.949V16.419Z" fill="#7DA1B1"/>
<path d="M177.544 18.9307C177.279 18.9307 177.015 18.9131 176.751 18.8779C176.486 18.8426 176.195 18.7897 175.878 18.7192L176.063 16.3661C176.345 16.4366 176.627 16.4718 176.909 16.4718C177.685 16.4718 178.302 16.1634 178.76 15.5465C179.218 14.9295 179.553 13.9953 179.765 12.7438C179.994 11.4924 180.144 9.9148 180.214 8.01114L180.505 0.211426H193.54V18.7192H190.949V1.82425L191.583 2.51168H182.197L182.779 1.79781L182.567 7.93182C182.515 9.76497 182.391 11.369 182.197 12.7438C182.003 14.1187 181.713 15.2644 181.325 16.181C180.937 17.0976 180.435 17.785 179.818 18.2433C179.218 18.7016 178.46 18.9307 177.544 18.9307Z" fill="#7DA1B1"/>
<path d="M158.664 18.7192V0.211426H166.622C168.632 0.211426 170.209 0.616835 171.355 1.42765C172.501 2.23847 173.074 3.41944 173.074 4.97057C173.074 6.48645 172.527 7.6498 171.434 8.46061C170.341 9.25381 168.905 9.6504 167.125 9.6504L167.601 8.85721C169.663 8.85721 171.24 9.27143 172.333 10.0999C173.444 10.9107 173.999 12.1005 173.999 13.6692C173.999 15.2556 173.417 16.4983 172.254 17.3972C171.108 18.2786 169.398 18.7192 167.125 18.7192H158.664ZM161.281 16.6305H167.072C168.482 16.6305 169.539 16.3749 170.245 15.8637C170.967 15.3349 171.329 14.5329 171.329 13.4577C171.329 12.3825 170.967 11.5981 170.245 11.1046C169.539 10.611 168.482 10.3643 167.072 10.3643H161.281V16.6305ZM161.281 8.35486H166.437C167.724 8.35486 168.702 8.09927 169.372 7.5881C170.059 7.07694 170.403 6.32781 170.403 5.34073C170.403 4.33602 170.059 3.57808 169.372 3.06691C168.702 2.55575 167.724 2.30016 166.437 2.30016H161.281V8.35486Z" fill="#7DA1B1"/>
<path d="M144.581 18.9308C143.171 18.9308 141.857 18.6929 140.641 18.217C139.443 17.741 138.403 17.08 137.521 16.234C136.64 15.3703 135.952 14.3656 135.459 13.2199C134.965 12.0741 134.719 10.8227 134.719 9.46541C134.719 8.10818 134.965 6.8567 135.459 5.71097C135.952 4.56525 136.64 3.56936 137.521 2.72329C138.403 1.85959 139.443 1.18979 140.641 0.713871C141.84 0.237957 143.153 0 144.581 0C145.991 0 147.286 0.237957 148.467 0.713871C149.666 1.17216 150.706 1.83315 151.587 2.69685C152.486 3.54292 153.174 4.53881 153.649 5.68454C154.143 6.83026 154.39 8.09055 154.39 9.46541C154.39 10.8403 154.143 12.1006 153.649 13.2463C153.174 14.392 152.486 15.3967 151.587 16.2604C150.706 17.1065 149.666 17.7675 148.467 18.2434C147.286 18.7017 145.991 18.9308 144.581 18.9308ZM144.581 16.5777C145.603 16.5777 146.546 16.4014 147.41 16.0489C148.291 15.6964 149.049 15.2028 149.684 14.5683C150.336 13.9161 150.838 13.1582 151.191 12.2945C151.561 11.4308 151.746 10.4877 151.746 9.46541C151.746 8.44308 151.561 7.50006 151.191 6.63637C150.838 5.77267 150.336 5.02354 149.684 4.38899C149.049 3.73681 148.291 3.23446 147.41 2.88193C146.546 2.5294 145.603 2.35313 144.581 2.35313C143.541 2.35313 142.58 2.5294 141.699 2.88193C140.835 3.23446 140.077 3.73681 139.425 4.38899C138.773 5.02354 138.262 5.77267 137.891 6.63637C137.539 7.50006 137.363 8.44308 137.363 9.46541C137.363 10.4877 137.539 11.4308 137.891 12.2945C138.262 13.1582 138.773 13.9161 139.425 14.5683C140.077 15.2028 140.835 15.6964 141.699 16.0489C142.58 16.4014 143.541 16.5777 144.581 16.5777Z" fill="#7DA1B1"/>
<path d="M127.836 0.211426H130.48V18.7192H127.836V0.211426ZM117.207 18.7192H114.564V0.211426H117.207V18.7192ZM128.074 10.47H116.943V8.16978H128.074V10.47Z" fill="#7DA1B1"/>
<path d="M91.9626 18.7192L100.344 0.211426H102.962L111.369 18.7192H108.593L101.111 1.69205H102.168L94.6859 18.7192H91.9626ZM95.5319 14.0923L96.2458 11.9771H106.663L107.43 14.0923H95.5319Z" fill="#7DA1B1"/>
<path d="M83.3065 18.7192V1.82425L83.9675 2.51168H76.9874V0.211426H92.2431V2.51168H85.2631L85.8976 1.82425V18.7192H83.3065Z" fill="#7DA1B1"/>
<path d="M69.0301 18.9308C67.62 18.9308 66.3157 18.7017 65.1171 18.2434C63.9361 17.7675 62.9049 17.1065 62.0236 16.2604C61.1599 15.3967 60.4813 14.392 59.9877 13.2463C59.4942 12.1006 59.2474 10.8403 59.2474 9.46541C59.2474 8.09055 59.4942 6.83026 59.9877 5.68454C60.4813 4.53881 61.1687 3.54292 62.05 2.69685C62.9314 1.83315 63.9625 1.17216 65.1435 0.713871C66.3421 0.237957 67.6464 0 69.0566 0C70.4843 0 71.7975 0.24677 72.9961 0.740311C74.2123 1.21623 75.2435 1.9301 76.0895 2.88193L74.3709 4.54763C73.6659 3.80732 72.8727 3.2609 71.9914 2.90837C71.1101 2.53821 70.167 2.35313 69.1623 2.35313C68.1224 2.35313 67.1529 2.5294 66.254 2.88193C65.3726 3.23446 64.6059 3.728 63.9537 4.36255C63.3015 4.9971 62.7904 5.75504 62.4202 6.63637C62.0677 7.50006 61.8914 8.44308 61.8914 9.46541C61.8914 10.4877 62.0677 11.4396 62.4202 12.3209C62.7904 13.1846 63.3015 13.9337 63.9537 14.5683C64.6059 15.2028 65.3726 15.6964 66.254 16.0489C67.1529 16.4014 68.1224 16.5777 69.1623 16.5777C70.167 16.5777 71.1101 16.4014 71.9914 16.0489C72.8727 15.6787 73.6659 15.1147 74.3709 14.3568L76.0895 16.0225C75.2435 16.9743 74.2123 17.697 72.9961 18.1905C71.7975 18.6841 70.4755 18.9308 69.0301 18.9308Z" fill="#7DA1B1"/>
<path d="M50.4397 18.9308C49.0296 18.9308 47.7253 18.7017 46.5267 18.2434C45.3457 17.7675 44.3145 17.1065 43.4332 16.2604C42.5695 15.3967 41.8909 14.392 41.3974 13.2463C40.9038 12.1006 40.657 10.8403 40.657 9.46541C40.657 8.09055 40.9038 6.83026 41.3974 5.68454C41.8909 4.53881 42.5783 3.54292 43.4597 2.69685C44.341 1.83315 45.3721 1.17216 46.5531 0.713871C47.7517 0.237957 49.0561 0 50.4662 0C51.8939 0 53.2071 0.24677 54.4057 0.740311C55.6219 1.21623 56.6531 1.9301 57.4991 2.88193L55.7806 4.54763C55.0755 3.80732 54.2823 3.2609 53.401 2.90837C52.5197 2.53821 51.5766 2.35313 50.5719 2.35313C49.532 2.35313 48.5625 2.5294 47.6636 2.88193C46.7822 3.23446 46.0155 3.728 45.3633 4.36255C44.7111 4.9971 44.2 5.75504 43.8298 6.63637C43.4773 7.50006 43.301 8.44308 43.301 9.46541C43.301 10.4877 43.4773 11.4396 43.8298 12.3209C44.2 13.1846 44.7111 13.9337 45.3633 14.5683C46.0155 15.2028 46.7822 15.6964 47.6636 16.0489C48.5625 16.4014 49.532 16.5777 50.5719 16.5777C51.5766 16.5777 52.5197 16.4014 53.401 16.0489C54.2823 15.6787 55.0755 15.1147 55.7806 14.3568L57.4991 16.0225C56.6531 16.9743 55.6219 17.697 54.4057 18.1905C53.2071 18.6841 51.8851 18.9308 50.4397 18.9308Z" fill="#7DA1B1"/>
<path d="M28.0809 18.9308C26.6708 18.9308 25.3576 18.6929 24.1414 18.217C22.9428 17.741 21.9028 17.08 21.0215 16.234C20.1402 15.3703 19.4527 14.3656 18.9592 13.2199C18.4656 12.0741 18.2189 10.8227 18.2189 9.46541C18.2189 8.10818 18.4656 6.8567 18.9592 5.71097C19.4527 4.56525 20.1402 3.56936 21.0215 2.72329C21.9028 1.85959 22.9428 1.18979 24.1414 0.713871C25.34 0.237957 26.6531 0 28.0809 0C29.491 0 30.7865 0.237957 31.9675 0.713871C33.1661 1.17216 34.2061 1.83315 35.0874 2.69685C35.9864 3.54292 36.6738 4.53881 37.1497 5.68454C37.6432 6.83026 37.89 8.09055 37.89 9.46541C37.89 10.8403 37.6432 12.1006 37.1497 13.2463C36.6738 14.392 35.9864 15.3967 35.0874 16.2604C34.2061 17.1065 33.1661 17.7675 31.9675 18.2434C30.7865 18.7017 29.491 18.9308 28.0809 18.9308ZM28.0809 16.5777C29.1032 16.5777 30.0462 16.4014 30.9099 16.0489C31.7913 15.6964 32.5492 15.2028 33.1837 14.5683C33.8359 13.9161 34.3383 13.1582 34.6908 12.2945C35.061 11.4308 35.246 10.4877 35.246 9.46541C35.246 8.44308 35.061 7.50006 34.6908 6.63637C34.3383 5.77267 33.8359 5.02354 33.1837 4.38899C32.5492 3.73681 31.7913 3.23446 30.9099 2.88193C30.0462 2.5294 29.1032 2.35313 28.0809 2.35313C27.0409 2.35313 26.0803 2.5294 25.199 2.88193C24.3353 3.23446 23.5773 3.73681 22.9251 4.38899C22.273 5.02354 21.7618 5.77267 21.3916 6.63637C21.0391 7.50006 20.8628 8.44308 20.8628 9.46541C20.8628 10.4877 21.0391 11.4308 21.3916 12.2945C21.7618 13.1582 22.273 13.9161 22.9251 14.5683C23.5773 15.2028 24.3353 15.6964 25.199 16.0489C26.0803 16.4014 27.0409 16.5777 28.0809 16.5777Z" fill="#7DA1B1"/>
<path d="M0 18.7192V0.211426H7.95835C9.96777 0.211426 11.5453 0.616835 12.6911 1.42765C13.8368 2.23847 14.4096 3.41944 14.4096 4.97057C14.4096 6.48645 13.8632 7.6498 12.7704 8.46061C11.6775 9.25381 10.241 9.6504 8.4607 9.6504L8.93662 8.85721C10.9989 8.85721 12.5765 9.27143 13.6693 10.0999C14.7798 10.9107 15.335 12.1005 15.335 13.6692C15.335 15.2556 14.7534 16.4983 13.59 17.3972C12.4443 18.2786 10.7345 18.7192 8.4607 18.7192H0ZM2.61753 16.6305H8.40782C9.81794 16.6305 10.8755 16.3749 11.5806 15.8637C12.3033 15.3349 12.6646 14.5329 12.6646 13.4577C12.6646 12.3825 12.3033 11.5981 11.5806 11.1046C10.8755 10.611 9.81794 10.3643 8.40782 10.3643H2.61753V16.6305ZM2.61753 8.35486H7.77327C9.06 8.35486 10.0383 8.09927 10.7081 7.5881C11.3955 7.07694 11.7392 6.32781 11.7392 5.34073C11.7392 4.33602 11.3955 3.57808 10.7081 3.06691C10.0383 2.55575 9.06 2.30016 7.77327 2.30016H2.61753V8.35486Z" fill="#7DA1B1"/>
</svg>
