<svg width="402" height="48" viewBox="0 0 402 48" fill="none" xmlns="http://www.w3.org/2000/svg">
<path d="M396.867 37.0829V25.1409L398.229 26.398H386.758C383.79 26.398 381.224 25.8917 379.059 24.8791C376.929 23.8664 375.288 22.4173 374.135 20.5318C373.018 18.6113 372.459 16.3067 372.459 13.618C372.459 10.8245 373.07 8.4501 374.292 6.49469C375.515 4.50436 377.243 3.00288 379.478 1.99026C381.713 0.942717 384.314 0.418945 387.282 0.418945H402V37.0829H396.867ZM372.459 37.0829L381.521 24.0934H386.863L378.011 37.0829H372.459ZM396.867 23.4649V3.45682L398.229 4.97575H387.492C384.349 4.97575 381.94 5.70903 380.263 7.17559C378.587 8.60723 377.749 10.7372 377.749 13.5656C377.749 16.2543 378.535 18.3319 380.106 19.7985C381.713 21.265 384.07 21.9983 387.177 21.9983H398.229L396.867 23.4649Z" fill="#7DA1B1"/>
<path d="M332.011 37.0829V0.418945H337.197V28.7026L358.881 0.418945H363.7V37.0829H358.567V8.85166L336.83 37.0829H332.011Z" fill="#7DA1B1"/>
<path d="M288.585 37.0829V0.418945H293.771V32.5261H314.198V0.418945H319.383V37.0829H288.585ZM320.169 45.4109V35.7211L321.426 37.0829H314.198V32.5261H325.04V45.4109H320.169Z" fill="#7DA1B1"/>
<path d="M243.813 37.0829L260.416 0.418945H265.602L282.258 37.0829H276.758L261.935 3.35206H264.03L249.208 37.0829H243.813ZM250.884 27.9169L252.298 23.7268H272.935L274.454 27.9169H250.884Z" fill="#7DA1B1"/>
<path d="M213.856 37.0829V0.418945H228.155C231.367 0.418945 234.109 0.925258 236.378 1.93788C238.648 2.95051 240.394 4.41707 241.616 6.33756C242.838 8.25805 243.449 10.5452 243.449 13.199C243.449 15.8527 242.838 18.1399 241.616 20.0604C240.394 21.9459 238.648 23.4125 236.378 24.46C234.109 25.4727 231.367 25.979 228.155 25.979H216.737L219.094 23.5173V37.0829H213.856ZM219.094 24.041L216.737 21.4222H227.998C231.35 21.4222 233.882 20.7063 235.593 19.2747C237.338 17.8431 238.211 15.8178 238.211 13.199C238.211 10.5801 237.338 8.55486 235.593 7.12322C233.882 5.69158 231.35 4.97575 227.998 4.97575H216.737L219.094 2.3569V24.041Z" fill="#7DA1B1"/>
<path d="M189.787 37.0829V3.61395L191.096 4.97575H177.269V0.418945H207.49V4.97575H193.663L194.92 3.61395V37.0829H189.787Z" fill="#7DA1B1"/>
<path d="M161.505 37.502C158.712 37.502 156.128 37.0481 153.753 36.1402C151.414 35.1974 149.371 33.888 147.625 32.2119C145.914 30.5009 144.57 28.5106 143.592 26.2409C142.614 23.9713 142.126 21.4746 142.126 18.751C142.126 16.0274 142.614 13.5307 143.592 11.2611C144.57 8.9914 145.932 7.01853 147.678 5.34246C149.423 3.63148 151.466 2.32205 153.806 1.41418C156.18 0.471393 158.764 0 161.558 0C164.386 0 166.987 0.488853 169.362 1.46656C171.771 2.40934 173.814 3.82353 175.49 5.7091L172.085 9.00886C170.689 7.5423 169.117 6.45984 167.371 5.76148C165.625 5.0282 163.757 4.66156 161.767 4.66156C159.707 4.66156 157.786 5.01074 156.006 5.7091C154.26 6.40746 152.741 7.38517 151.449 8.64222C150.157 9.89927 149.144 11.4007 148.411 13.1467C147.713 14.8576 147.363 16.7258 147.363 18.751C147.363 20.7762 147.713 22.6618 148.411 24.4077C149.144 26.1187 150.157 27.6027 151.449 28.8598C152.741 30.1168 154.26 31.0945 156.006 31.7929C157.786 32.4913 159.707 32.8404 161.767 32.8404C163.757 32.8404 165.625 32.4913 167.371 31.7929C169.117 31.0596 170.689 29.9422 172.085 28.4408L175.49 31.7405C173.814 33.6261 171.771 35.0577 169.362 36.0354C166.987 37.0132 164.368 37.502 161.505 37.502Z" fill="#7DA1B1"/>
<path d="M101.992 37.0829V0.418945H107.177V28.7026L128.862 0.418945H133.68V37.0829H128.547V8.85166L106.811 37.0829H101.992Z" fill="#7DA1B1"/>
<path d="M71.7116 37.0829V0.418945H95.7527L95.7003 4.97575H75.5875L76.8446 3.66633L76.8969 37.0829H71.7116Z" fill="#7DA1B1"/>
<path d="M41.645 16.2368H60.5008V20.6889H41.645V16.2368ZM42.1164 32.5261H63.4863V37.0829H36.8787V0.418945H62.753V4.97575H42.1164V32.5261Z" fill="#7DA1B1"/>
<path d="M0 37.0829L0 0.418945H14.299C17.5114 0.418945 20.2525 0.925258 22.5222 1.93788C24.7918 2.95051 26.5377 4.41707 27.7599 6.33756C28.982 8.25805 29.5931 10.5452 29.5931 13.199C29.5931 15.8527 28.982 18.1399 27.7599 20.0604C26.5377 21.9459 24.7918 23.4125 22.5222 24.46C20.2525 25.4727 17.5114 25.979 14.299 25.979H2.88074L5.23771 23.5173V37.0829H0ZM5.23771 24.041L2.88074 21.4222H14.1418C17.494 21.4222 20.0255 20.7063 21.7365 19.2747C23.4824 17.8431 24.3554 15.8178 24.3554 13.199C24.3554 10.5801 23.4824 8.55486 21.7365 7.12322C20.0255 5.69158 17.494 4.97575 14.1418 4.97575H2.88074L5.23771 2.3569V24.041Z" fill="#7DA1B1"/>
</svg>
