<svg width="200" height="116" viewBox="0 0 200 116" fill="none" xmlns="http://www.w3.org/2000/svg">
<g clip-path="url(#clip0_295_1208)">
<path d="M90.1835 46.6817H128.395L160.434 26.3459L166.607 60.2388L164.843 95.0159L107.526 114.173L54.9114 96.7842L52.5599 62.5966L61.3779 27.8196L90.1835 46.6817Z" stroke="#7DA1B1" stroke-width="3" stroke-miterlimit="10"/>
<path d="M80.4837 67.6068H71.6656V78.8062H80.4837V67.6068Z" fill="#F0E262"/>
<path d="M137.801 67.9016H128.983V79.101H137.801V67.9016Z" fill="#F0E262"/>
<path d="M148.677 78.2168L128.689 79.9851V67.6068H148.677V78.2168Z" stroke="#7DA1B1" stroke-width="3" stroke-miterlimit="10"/>
<path d="M91.6532 79.9851L71.6656 78.2168V67.6068H91.6532V79.9851Z" stroke="#7DA1B1" stroke-width="3" stroke-miterlimit="10"/>
<path d="M132.804 71.4382V75.5643" stroke="#7DA1B1" stroke-width="3" stroke-miterlimit="10"/>
<path d="M75.7807 71.1436V75.2696" stroke="#7DA1B1" stroke-width="3" stroke-miterlimit="10"/>
<path d="M99.8834 94.1317L106.938 90.5951L112.816 94.1317" stroke="#7DA1B1" stroke-width="3" stroke-miterlimit="10"/>
<path d="M104.586 79.9851H109.289" stroke="#7DA1B1" stroke-width="3" stroke-miterlimit="10"/>
<path d="M7 2.17888V45.2081H48.1509V1H7V2.17888Z" stroke="#7DA1B1" stroke-width="3" stroke-miterlimit="10"/>
<path d="M26.3997 11.61V25.1671L35.2177 19.8622" stroke="#7DA1B1" stroke-width="3" stroke-miterlimit="10"/>
<path d="M179.246 33.4193L175.719 51.692H195.118" stroke="#F0E262" stroke-width="3" stroke-miterlimit="10"/>
<path d="M30.5148 58.7653L41.0964 71.1435L21.1089 78.8063" stroke="#F0E262" stroke-width="3" stroke-miterlimit="10"/>
<path d="M106.938 18.6832L113.992 29.8826L125.162 21.6304" stroke="#F0E262" stroke-width="3" stroke-miterlimit="10"/>
</g>
<defs>
<clipPath id="clip0_295_1208">
<rect width="200" height="116" fill="white"/>
</clipPath>
</defs>
</svg>
