<svg width="28" height="325" viewBox="0 0 28 325" fill="none" xmlns="http://www.w3.org/2000/svg">
<path d="M23.256 312.496C23.256 314.203 22.9787 315.781 22.424 317.232C21.848 318.661 21.048 319.909 20.024 320.976C18.9787 322.021 17.7627 322.843 16.376 323.44C14.9893 324.037 13.464 324.336 11.8 324.336C10.136 324.336 8.61067 324.037 7.224 323.44C5.83733 322.843 4.632 322.011 3.608 320.944C2.56267 319.877 1.76267 318.629 1.208 317.2C0.631999 315.749 0.344 314.171 0.344 312.464C0.344 310.736 0.642666 309.147 1.24 307.696C1.816 306.224 2.68 304.976 3.832 303.952L5.848 306.032C4.952 306.885 4.29067 307.845 3.864 308.912C3.416 309.979 3.192 311.12 3.192 312.336C3.192 313.595 3.40533 314.768 3.832 315.856C4.25867 316.923 4.856 317.851 5.624 318.64C6.392 319.429 7.30933 320.048 8.376 320.496C9.42133 320.923 10.5627 321.136 11.8 321.136C13.0373 321.136 14.1893 320.923 15.256 320.496C16.3013 320.048 17.208 319.429 17.976 318.64C18.744 317.851 19.3413 316.923 19.768 315.856C20.1947 314.768 20.408 313.595 20.408 312.336C20.408 311.12 20.1947 309.979 19.768 308.912C19.32 307.845 18.6373 306.885 17.72 306.032L19.736 303.952C20.888 304.976 21.7627 306.224 22.36 307.696C22.9573 309.147 23.256 310.747 23.256 312.496ZM23.256 289.932C23.256 291.639 22.968 293.228 22.392 294.7C21.816 296.151 21.016 297.409 19.992 298.476C18.9467 299.543 17.7307 300.375 16.344 300.972C14.9573 301.569 13.4427 301.868 11.8 301.868C10.1573 301.868 8.64267 301.569 7.256 300.972C5.86933 300.375 4.664 299.543 3.64 298.476C2.59467 297.409 1.784 296.151 1.208 294.7C0.631999 293.249 0.344 291.66 0.344 289.932C0.344 288.225 0.631999 286.657 1.208 285.228C1.76267 283.777 2.56267 282.519 3.608 281.452C4.632 280.364 5.83733 279.532 7.224 278.956C8.61067 278.359 10.136 278.06 11.8 278.06C13.464 278.06 14.9893 278.359 16.376 278.956C17.7627 279.532 18.9787 280.364 20.024 281.452C21.048 282.519 21.848 283.777 22.424 285.228C22.9787 286.657 23.256 288.225 23.256 289.932ZM20.408 289.932C20.408 288.695 20.1947 287.553 19.768 286.508C19.3413 285.441 18.744 284.524 17.976 283.756C17.1867 282.967 16.2693 282.359 15.224 281.932C14.1787 281.484 13.0373 281.26 11.8 281.26C10.5627 281.26 9.42133 281.484 8.376 281.932C7.33067 282.359 6.424 282.967 5.656 283.756C4.86666 284.524 4.25867 285.441 3.832 286.508C3.40533 287.553 3.192 288.695 3.192 289.932C3.192 291.191 3.40533 292.353 3.832 293.42C4.25867 294.465 4.86666 295.383 5.656 296.172C6.424 296.961 7.33067 297.58 8.376 298.028C9.42133 298.455 10.5627 298.668 11.8 298.668C13.0373 298.668 14.1787 298.455 15.224 298.028C16.2693 297.58 17.1867 296.961 17.976 296.172C18.744 295.383 19.3413 294.465 19.768 293.42C20.1947 292.353 20.408 291.191 20.408 289.932ZM23 268.623H2.552L3.384 267.823V276.271H0.599998V257.807H3.384V266.255L2.552 265.487H23V268.623ZM23 253.918H0.599998L0.599998 245.182C0.599998 243.22 0.909332 241.545 1.528 240.158C2.14667 238.772 3.04267 237.705 4.216 236.958C5.38933 236.212 6.78667 235.838 8.408 235.838C10.0293 235.838 11.4267 236.212 12.6 236.958C13.752 237.705 14.648 238.772 15.288 240.158C15.9067 241.545 16.216 243.22 16.216 245.182V252.158L14.712 250.718H23V253.918ZM15.032 250.718L13.432 252.158V245.278C13.432 243.23 12.9947 241.684 12.12 240.638C11.2453 239.572 10.008 239.038 8.408 239.038C6.808 239.038 5.57067 239.572 4.696 240.638C3.82133 241.684 3.384 243.23 3.384 245.278V252.158L1.784 250.718H15.032ZM20.184 231.951C20.5893 230.842 20.696 229.818 20.504 228.879C20.2907 227.94 19.576 227.098 18.36 226.351L16.632 225.263L16.28 224.943L0.599998 216.719V213.551L19.032 223.503C20.44 224.25 21.5067 225.124 22.232 226.127C22.936 227.108 23.32 228.175 23.384 229.327C23.4693 230.458 23.256 231.61 22.744 232.783L20.184 231.951ZM19.128 225.039L0.599998 234.863V231.439L16.568 223.279L19.128 225.039ZM21.496 195.601H3.384V205.425L8.088 205.585C9.66667 205.649 11.1813 205.755 12.632 205.905C14.0827 206.033 15.3947 206.225 16.568 206.481C17.72 206.737 18.6693 207.099 19.416 207.569C20.1627 208.017 20.6213 208.593 20.792 209.297L20.216 212.753C20.28 211.921 20.0027 211.238 19.384 210.705C18.744 210.15 17.8587 209.723 16.728 209.425C15.576 209.105 14.2427 208.87 12.728 208.721C11.192 208.571 9.54933 208.465 7.8 208.401L0.599998 208.177L0.599998 192.433H21.496V195.601ZM27.896 213.553L20.216 213.521V189.137H27.896V192.113H23V210.545L27.896 210.577V213.553ZM0.599998 168.698L0.599998 165.498H23V168.698H0.599998ZM23 181.562V184.762H0.599998V181.562H23ZM13.016 168.41L13.016 181.882H10.232L10.232 168.41H13.016ZM23 158.512H0.599998V155.344H17.88L0.599998 142.096V139.152H23V142.288H5.752L23 155.568V158.512ZM13.912 118.841C14.4453 120.1 14.8507 121.327 15.128 122.521C15.384 123.695 15.512 124.836 15.512 125.945C15.512 128.676 14.8507 130.799 13.528 132.313C12.2053 133.807 10.3173 134.553 7.864 134.553H0.599998V131.417H7.512C9.176 131.417 10.456 130.905 11.352 129.881C12.248 128.857 12.696 127.428 12.696 125.593C12.696 124.505 12.5573 123.396 12.28 122.265C12.0027 121.113 11.5973 119.993 11.064 118.905L13.912 118.841ZM23 119.385H0.599998V116.217H23V119.385ZM10.264 106.319V94.7987H12.984V106.319H10.264ZM20.216 106.031V92.9747H23V109.231H0.599998L0.599998 93.4227H3.384V106.031H20.216ZM23.256 77.9647C23.256 79.6714 22.9787 81.2501 22.424 82.7007C21.848 84.1301 21.048 85.3781 20.024 86.4447C18.9787 87.4901 17.7627 88.3114 16.376 88.9087C14.9893 89.5061 13.464 89.8047 11.8 89.8047C10.136 89.8047 8.61067 89.5061 7.224 88.9087C5.83733 88.3114 4.632 87.4794 3.608 86.4127C2.56267 85.3461 1.76267 84.0981 1.208 82.6687C0.631999 81.2181 0.344 79.6394 0.344 77.9327C0.344 76.2047 0.642666 74.6154 1.24 73.1647C1.816 71.6927 2.68 70.4447 3.832 69.4207L5.848 71.5007C4.952 72.3541 4.29067 73.3141 3.864 74.3807C3.416 75.4474 3.192 76.5887 3.192 77.8047C3.192 79.0634 3.40533 80.2367 3.832 81.3247C4.25867 82.3914 4.856 83.3194 5.624 84.1087C6.392 84.8981 7.30933 85.5167 8.376 85.9647C9.42133 86.3914 10.5627 86.6047 11.8 86.6047C13.0373 86.6047 14.1893 86.3914 15.256 85.9647C16.3013 85.5167 17.208 84.8981 17.976 84.1087C18.744 83.3194 19.3413 82.3914 19.768 81.3247C20.1947 80.2367 20.408 79.0634 20.408 77.8047C20.408 76.5887 20.1947 75.4474 19.768 74.3807C19.32 73.3141 18.6373 72.3541 17.72 71.5007L19.736 69.4207C20.888 70.4447 21.7627 71.6927 22.36 73.1647C22.9573 74.6154 23.256 76.2154 23.256 77.9647ZM23 60.686H2.552L3.384 59.886V68.334H0.599998L0.599998 49.87H3.384L3.384 58.318L2.552 57.55H23V60.686ZM23 45.9807H0.599998V36.3487C0.599998 33.9167 1.09067 32.0074 2.072 30.6207C3.05333 29.2341 4.48267 28.5407 6.36 28.5407C8.19467 28.5407 9.60267 29.2021 10.584 30.5247C11.544 31.8474 12.024 33.5861 12.024 35.7407L11.064 35.1647C11.064 32.6687 11.5653 30.7594 12.568 29.4367C13.5493 28.0927 14.9893 27.4207 16.888 27.4207C18.808 27.4207 20.312 28.1247 21.4 29.5327C22.4667 30.9194 23 32.9887 23 35.7407V45.9807ZM20.472 42.8127V35.8047C20.472 34.0981 20.1627 32.8181 19.544 31.9647C18.904 31.0901 17.9333 30.6528 16.632 30.6528C15.3307 30.6528 14.3813 31.0901 13.784 31.9647C13.1867 32.8181 12.888 34.0981 12.888 35.8047V42.8127H20.472ZM10.456 42.8127V36.5727C10.456 35.0154 10.1467 33.8314 9.528 33.0208C8.90933 32.1887 8.00267 31.7727 6.808 31.7727C5.592 31.7727 4.67467 32.1887 4.056 33.0208C3.43733 33.8314 3.128 35.0154 3.128 36.5727V42.8127H10.456ZM23.256 11.9945C23.256 13.7012 22.968 15.2905 22.392 16.7625C21.816 18.2132 21.016 19.4718 19.992 20.5385C18.9467 21.6052 17.7307 22.4372 16.344 23.0345C14.9573 23.6318 13.4427 23.9305 11.8 23.9305C10.1573 23.9305 8.64267 23.6318 7.256 23.0345C5.86933 22.4372 4.664 21.6052 3.64 20.5385C2.59467 19.4718 1.784 18.2132 1.208 16.7625C0.631999 15.3118 0.344 13.7225 0.344 11.9945C0.344 10.2878 0.631999 8.71983 1.208 7.2905C1.76267 5.83983 2.56267 4.58117 3.608 3.5145C4.632 2.4265 5.83733 1.5945 7.224 1.0185C8.61067 0.421166 10.136 0.122499 11.8 0.122499C13.464 0.122499 14.9893 0.421166 16.376 1.0185C17.7627 1.5945 18.9787 2.4265 20.024 3.5145C21.048 4.58117 21.848 5.83983 22.424 7.2905C22.9787 8.71983 23.256 10.2878 23.256 11.9945ZM20.408 11.9945C20.408 10.7572 20.1947 9.61583 19.768 8.5705C19.3413 7.50383 18.744 6.5865 17.976 5.8185C17.1867 5.02917 16.2693 4.42117 15.224 3.9945C14.1787 3.5465 13.0373 3.3225 11.8 3.3225C10.5627 3.3225 9.42133 3.5465 8.376 3.9945C7.33067 4.42117 6.424 5.02917 5.656 5.8185C4.86666 6.5865 4.25867 7.50383 3.832 8.5705C3.40533 9.61583 3.192 10.7572 3.192 11.9945C3.192 13.2532 3.40533 14.4158 3.832 15.4825C4.25867 16.5278 4.86666 17.4452 5.656 18.2345C6.424 19.0238 7.33067 19.6425 8.376 20.0905C9.42133 20.5172 10.5627 20.7305 11.8 20.7305C13.0373 20.7305 14.1787 20.5172 15.224 20.0905C16.2693 19.6425 17.1867 19.0238 17.976 18.2345C18.744 17.4452 19.3413 16.5278 19.768 15.4825C20.1947 14.4158 20.408 13.2532 20.408 11.9945Z" fill="#F2F3EE"/>
</svg>
