<svg width="24" height="181" viewBox="0 0 24 181" fill="none" xmlns="http://www.w3.org/2000/svg">
<path d="M23 180.512H0.599998L0.599998 161.216H23V164.352H2.552L3.384 163.584L3.384 178.144L2.552 177.344H23V180.512ZM23 154.231H0.599998V145.495C0.599998 143.532 0.909332 141.857 1.528 140.471C2.14667 139.084 3.04267 138.017 4.216 137.271C5.38933 136.524 6.78667 136.151 8.408 136.151C10.0293 136.151 11.4267 136.524 12.6 137.271C13.752 138.017 14.648 139.084 15.288 140.471C15.9067 141.857 16.216 143.532 16.216 145.495V152.471L14.712 151.031H23V154.231ZM15.032 151.031L13.432 152.471V145.591C13.432 143.543 12.9947 141.996 12.12 140.951C11.2453 139.884 10.008 139.351 8.408 139.351C6.808 139.351 5.57067 139.884 4.696 140.951C3.82133 141.996 3.384 143.543 3.384 145.591V152.471L1.784 151.031H15.032ZM23.256 121.307C23.256 123.014 22.968 124.603 22.392 126.075C21.816 127.526 21.016 128.784 19.992 129.851C18.9467 130.918 17.7307 131.75 16.344 132.347C14.9573 132.944 13.4427 133.243 11.8 133.243C10.1573 133.243 8.64267 132.944 7.256 132.347C5.86933 131.75 4.664 130.918 3.64 129.851C2.59467 128.784 1.784 127.526 1.208 126.075C0.631999 124.624 0.344 123.035 0.344 121.307C0.344 119.6 0.631999 118.032 1.208 116.603C1.76267 115.152 2.56267 113.894 3.608 112.827C4.632 111.739 5.83733 110.907 7.224 110.331C8.61067 109.734 10.136 109.435 11.8 109.435C13.464 109.435 14.9893 109.734 16.376 110.331C17.7627 110.907 18.9787 111.739 20.024 112.827C21.048 113.894 21.848 115.152 22.424 116.603C22.9787 118.032 23.256 119.6 23.256 121.307ZM20.408 121.307C20.408 120.07 20.1947 118.928 19.768 117.883C19.3413 116.816 18.744 115.899 17.976 115.131C17.1867 114.342 16.2693 113.734 15.224 113.307C14.1787 112.859 13.0373 112.635 11.8 112.635C10.5627 112.635 9.42133 112.859 8.376 113.307C7.33067 113.734 6.424 114.342 5.656 115.131C4.86666 115.899 4.25867 116.816 3.832 117.883C3.40533 118.928 3.192 120.07 3.192 121.307C3.192 122.566 3.40533 123.728 3.832 124.795C4.25867 125.84 4.86666 126.758 5.656 127.547C6.424 128.336 7.33067 128.955 8.376 129.403C9.42133 129.83 10.5627 130.043 11.8 130.043C13.0373 130.043 14.1787 129.83 15.224 129.403C16.2693 128.955 17.1867 128.336 17.976 127.547C18.744 126.758 19.3413 125.84 19.768 124.795C20.1947 123.728 20.408 122.566 20.408 121.307ZM23 104.262H0.599998V89.574L3.384 89.606V101.894L2.584 101.126L23 101.094V104.262ZM23 85.762H0.599998L0.599998 77.026C0.599998 75.0633 0.909332 73.3887 1.528 72.002C2.14667 70.6153 3.04267 69.5487 4.216 68.802C5.38933 68.0553 6.78667 67.682 8.408 67.682C10.0293 67.682 11.4267 68.0553 12.6 68.802C13.752 69.5487 14.648 70.6153 15.288 72.002C15.9067 73.3887 16.216 75.0633 16.216 77.026V84.002L14.712 82.562H23V85.762ZM15.032 82.562L13.432 84.002V77.122C13.432 75.074 12.9947 73.5273 12.12 72.482C11.2453 71.4153 10.008 70.882 8.408 70.882C6.808 70.882 5.57067 71.4153 4.696 72.482C3.82133 73.5273 3.384 75.074 3.384 77.122L3.384 84.002L1.784 82.562H15.032ZM10.264 60.3187V48.7987H12.984V60.3187H10.264ZM20.216 60.0307V46.9747H23V63.2307H0.599998L0.599998 47.4227H3.384L3.384 60.0307H20.216ZM23.256 31.9647C23.256 33.6714 22.9787 35.2501 22.424 36.7007C21.848 38.1301 21.048 39.3781 20.024 40.4447C18.9787 41.4901 17.7627 42.3114 16.376 42.9087C14.9893 43.5061 13.464 43.8047 11.8 43.8047C10.136 43.8047 8.61067 43.5061 7.224 42.9087C5.83733 42.3114 4.632 41.4794 3.608 40.4127C2.56267 39.3461 1.76267 38.0981 1.208 36.6687C0.631999 35.2181 0.344 33.6394 0.344 31.9327C0.344 30.2047 0.642666 28.6154 1.24 27.1647C1.816 25.6927 2.68 24.4447 3.832 23.4207L5.848 25.5007C4.952 26.3541 4.29067 27.3141 3.864 28.3807C3.416 29.4474 3.192 30.5887 3.192 31.8047C3.192 33.0634 3.40533 34.2367 3.832 35.3247C4.25867 36.3914 4.856 37.3194 5.624 38.1087C6.392 38.8981 7.30933 39.5167 8.376 39.9647C9.42133 40.3914 10.5627 40.6047 11.8 40.6047C13.0373 40.6047 14.1893 40.3914 15.256 39.9647C16.3013 39.5167 17.208 38.8981 17.976 38.1087C18.744 37.3194 19.3413 36.3914 19.768 35.3247C20.1947 34.2367 20.408 33.0634 20.408 31.8047C20.408 30.5887 20.1947 29.4474 19.768 28.3807C19.32 27.3141 18.6373 26.3541 17.72 25.5007L19.736 23.4207C20.888 24.4447 21.7627 25.6927 22.36 27.1647C22.9573 28.6154 23.256 30.2154 23.256 31.9647ZM23.256 9.46475C23.256 11.1714 22.9787 12.7501 22.424 14.2007C21.848 15.6301 21.048 16.8781 20.024 17.9447C18.9787 18.9901 17.7627 19.8114 16.376 20.4087C14.9893 21.0061 13.464 21.3047 11.8 21.3047C10.136 21.3047 8.61067 21.0061 7.224 20.4087C5.83733 19.8114 4.632 18.9794 3.608 17.9127C2.56267 16.8461 1.76267 15.5981 1.208 14.1687C0.631999 12.7181 0.344 11.1394 0.344 9.43275C0.344 7.70475 0.642666 6.11542 1.24 4.66475C1.816 3.19275 2.68 1.94475 3.832 0.92075L5.848 3.00075C4.952 3.85408 4.29067 4.81408 3.864 5.88075C3.416 6.94742 3.192 8.08875 3.192 9.30475C3.192 10.5634 3.40533 11.7367 3.832 12.8247C4.25867 13.8914 4.856 14.8194 5.624 15.6087C6.392 16.3981 7.30933 17.0167 8.376 17.4647C9.42133 17.8914 10.5627 18.1047 11.8 18.1047C13.0373 18.1047 14.1893 17.8914 15.256 17.4647C16.3013 17.0167 17.208 16.3981 17.976 15.6087C18.744 14.8194 19.3413 13.8914 19.768 12.8247C20.1947 11.7367 20.408 10.5634 20.408 9.30475C20.408 8.08875 20.1947 6.94742 19.768 5.88075C19.32 4.81408 18.6373 3.85408 17.72 3.00075L19.736 0.92075C20.888 1.94475 21.7627 3.19275 22.36 4.66475C22.9573 6.11542 23.256 7.71542 23.256 9.46475Z" fill="#F2F3EE"/>
</svg>
