<svg width="28" height="248" viewBox="0 0 28 248" fill="none" xmlns="http://www.w3.org/2000/svg">
<path d="M23.256 235.808C23.256 237.515 22.9787 239.094 22.424 240.544C21.848 241.974 21.048 243.222 20.024 244.288C18.9787 245.334 17.7627 246.155 16.376 246.752C14.9893 247.35 13.464 247.648 11.8 247.648C10.136 247.648 8.61067 247.35 7.224 246.752C5.83733 246.155 4.632 245.323 3.608 244.256C2.56267 243.19 1.76267 241.942 1.208 240.512C0.631999 239.062 0.344 237.483 0.344 235.776C0.344 234.048 0.642666 232.459 1.24 231.008C1.816 229.536 2.68 228.288 3.832 227.264L5.848 229.344C4.952 230.198 4.29067 231.158 3.864 232.224C3.416 233.291 3.192 234.432 3.192 235.648C3.192 236.907 3.40533 238.08 3.832 239.168C4.25867 240.235 4.856 241.163 5.624 241.952C6.392 242.742 7.30933 243.36 8.376 243.808C9.42133 244.235 10.5627 244.448 11.8 244.448C13.0373 244.448 14.1893 244.235 15.256 243.808C16.3013 243.36 17.208 242.742 17.976 241.952C18.744 241.163 19.3413 240.235 19.768 239.168C20.1947 238.08 20.408 236.907 20.408 235.648C20.408 234.432 20.1947 233.291 19.768 232.224C19.32 231.158 18.6373 230.198 17.72 229.344L19.736 227.264C20.888 228.288 21.7627 229.536 22.36 231.008C22.9573 232.459 23.256 234.059 23.256 235.808ZM23.256 213.244C23.256 214.951 22.968 216.54 22.392 218.012C21.816 219.463 21.016 220.722 19.992 221.788C18.9467 222.855 17.7307 223.687 16.344 224.284C14.9573 224.882 13.4427 225.18 11.8 225.18C10.1573 225.18 8.64267 224.882 7.256 224.284C5.86933 223.687 4.664 222.855 3.64 221.788C2.59467 220.722 1.784 219.463 1.208 218.012C0.631999 216.562 0.344 214.972 0.344 213.244C0.344 211.538 0.631999 209.97 1.208 208.54C1.76267 207.09 2.56267 205.831 3.608 204.764C4.632 203.676 5.83733 202.844 7.224 202.268C8.61067 201.671 10.136 201.372 11.8 201.372C13.464 201.372 14.9893 201.671 16.376 202.268C17.7627 202.844 18.9787 203.676 20.024 204.764C21.048 205.831 21.848 207.09 22.424 208.54C22.9787 209.97 23.256 211.538 23.256 213.244ZM20.408 213.244C20.408 212.007 20.1947 210.866 19.768 209.82C19.3413 208.754 18.744 207.836 17.976 207.068C17.1867 206.279 16.2693 205.671 15.224 205.244C14.1787 204.796 13.0373 204.572 11.8 204.572C10.5627 204.572 9.42133 204.796 8.376 205.244C7.33067 205.671 6.424 206.279 5.656 207.068C4.86666 207.836 4.25867 208.754 3.832 209.82C3.40533 210.866 3.192 212.007 3.192 213.244C3.192 214.503 3.40533 215.666 3.832 216.732C4.25867 217.778 4.86666 218.695 5.656 219.484C6.424 220.274 7.33067 220.892 8.376 221.34C9.42133 221.767 10.5627 221.98 11.8 221.98C13.0373 221.98 14.1787 221.767 15.224 221.34C16.2693 220.892 17.1867 220.274 17.976 219.484C18.744 218.695 19.3413 217.778 19.768 216.732C20.1947 215.666 20.408 214.503 20.408 213.244ZM23.256 186.119C23.256 187.826 22.968 189.415 22.392 190.887C21.816 192.338 21.016 193.597 19.992 194.663C18.9467 195.73 17.7307 196.562 16.344 197.159C14.9573 197.757 13.4427 198.055 11.8 198.055C10.1573 198.055 8.64267 197.757 7.256 197.159C5.86933 196.562 4.664 195.73 3.64 194.663C2.59467 193.597 1.784 192.338 1.208 190.887C0.631999 189.437 0.344 187.847 0.344 186.119C0.344 184.413 0.631999 182.845 1.208 181.415C1.76267 179.965 2.56267 178.706 3.608 177.639C4.632 176.551 5.83733 175.719 7.224 175.143C8.61067 174.546 10.136 174.247 11.8 174.247C13.464 174.247 14.9893 174.546 16.376 175.143C17.7627 175.719 18.9787 176.551 20.024 177.639C21.048 178.706 21.848 179.965 22.424 181.415C22.9787 182.845 23.256 184.413 23.256 186.119ZM20.408 186.119C20.408 184.882 20.1947 183.741 19.768 182.695C19.3413 181.629 18.744 180.711 17.976 179.943C17.1867 179.154 16.2693 178.546 15.224 178.119C14.1787 177.671 13.0373 177.447 11.8 177.447C10.5627 177.447 9.42133 177.671 8.376 178.119C7.33067 178.546 6.424 179.154 5.656 179.943C4.86666 180.711 4.25867 181.629 3.832 182.695C3.40533 183.741 3.192 184.882 3.192 186.119C3.192 187.378 3.40533 188.541 3.832 189.607C4.25867 190.653 4.86666 191.57 5.656 192.359C6.424 193.149 7.33067 193.767 8.376 194.215C9.42133 194.642 10.5627 194.855 11.8 194.855C13.0373 194.855 14.1787 194.642 15.224 194.215C16.2693 193.767 17.1867 193.149 17.976 192.359C18.744 191.57 19.3413 190.653 19.768 189.607C20.1947 188.541 20.408 187.378 20.408 186.119ZM23 169.074H0.599998L0.599998 152.178H3.32V165.906H9.72V158.93C9.72 156.264 10.2747 154.237 11.384 152.85C12.4933 151.464 14.104 150.77 16.216 150.77C18.392 150.77 20.0667 151.528 21.24 153.042C22.4133 154.536 23 156.68 23 159.474V169.074ZM20.472 165.906V159.602C20.472 157.746 20.12 156.349 19.416 155.41C18.712 154.45 17.6667 153.97 16.28 153.97C13.592 153.97 12.248 155.848 12.248 159.602V165.906H20.472ZM20.216 132.452L21.048 133.188H0.599998V130.052H21.048L20.216 130.852V119.94L21.048 120.74H0.599998V117.604H23V145.668H0.599998V142.5H21.048L20.216 143.3V132.452ZM27.896 117.188H22.168L23 116.388V120.804H20.216V114.244H27.896V117.188ZM10.264 106.881L10.264 95.3612H12.984L12.984 106.881H10.264ZM20.216 106.593L20.216 93.5372H23L23 109.793H0.599998V93.9852H3.384V106.593H20.216ZM23.256 78.5272C23.256 80.2339 22.9787 81.8126 22.424 83.2632C21.848 84.6926 21.048 85.9406 20.024 87.0072C18.9787 88.0526 17.7627 88.8739 16.376 89.4712C14.9893 90.0686 13.464 90.3672 11.8 90.3672C10.136 90.3672 8.61067 90.0686 7.224 89.4712C5.83733 88.8739 4.632 88.0419 3.608 86.9752C2.56267 85.9086 1.76267 84.6606 1.208 83.2312C0.631999 81.7806 0.344 80.2019 0.344 78.4952C0.344 76.7672 0.642666 75.1779 1.24 73.7272C1.816 72.2552 2.68 71.0072 3.832 69.9832L5.848 72.0632C4.952 72.9166 4.29067 73.8766 3.864 74.9432C3.416 76.0099 3.192 77.1512 3.192 78.3672C3.192 79.6259 3.40533 80.7992 3.832 81.8872C4.25867 82.9539 4.856 83.8819 5.624 84.6712C6.392 85.4606 7.30933 86.0792 8.376 86.5272C9.42133 86.9539 10.5627 87.1672 11.8 87.1672C13.0373 87.1672 14.1893 86.9539 15.256 86.5272C16.3013 86.0792 17.208 85.4606 17.976 84.6712C18.744 83.8819 19.3413 82.9539 19.768 81.8872C20.1947 80.7992 20.408 79.6259 20.408 78.3672C20.408 77.1512 20.1947 76.0099 19.768 74.9432C19.32 73.8766 18.6373 72.9166 17.72 72.0632L19.736 69.9832C20.888 71.0072 21.7627 72.2552 22.36 73.7272C22.9573 75.1779 23.256 76.7779 23.256 78.5272ZM23 61.2485H2.552L3.384 60.4485V68.8965H0.599998L0.599998 50.4325H3.384L3.384 58.8805L2.552 58.1125H23V61.2485ZM23 46.5432H0.599998V36.9112C0.599998 34.4792 1.09067 32.5699 2.072 31.1832C3.05333 29.7966 4.48267 29.1032 6.36 29.1032C8.19467 29.1032 9.60267 29.7646 10.584 31.0872C11.544 32.4099 12.024 34.1486 12.024 36.3032L11.064 35.7272C11.064 33.2312 11.5653 31.3219 12.568 29.9992C13.5493 28.6552 14.9893 27.9832 16.888 27.9832C18.808 27.9832 20.312 28.6872 21.4 30.0952C22.4667 31.4819 23 33.5512 23 36.3032L23 46.5432ZM20.472 43.3752L20.472 36.3672C20.472 34.6606 20.1627 33.3806 19.544 32.5272C18.904 31.6526 17.9333 31.2153 16.632 31.2153C15.3307 31.2153 14.3813 31.6526 13.784 32.5272C13.1867 33.3806 12.888 34.6606 12.888 36.3672L12.888 43.3752H20.472ZM10.456 43.3752L10.456 37.1352C10.456 35.5779 10.1467 34.3939 9.528 33.5833C8.90933 32.7512 8.00267 32.3352 6.808 32.3352C5.592 32.3352 4.67467 32.7512 4.056 33.5833C3.43733 34.3939 3.128 35.5779 3.128 37.1352V43.3752H10.456ZM23.256 12.557C23.256 14.2637 22.968 15.853 22.392 17.325C21.816 18.7757 21.016 20.0343 19.992 21.101C18.9467 22.1677 17.7307 22.9997 16.344 23.597C14.9573 24.1943 13.4427 24.493 11.8 24.493C10.1573 24.493 8.64267 24.1943 7.256 23.597C5.86933 22.9997 4.664 22.1677 3.64 21.101C2.59467 20.0343 1.784 18.7757 1.208 17.325C0.631999 15.8743 0.344 14.285 0.344 12.557C0.344 10.8503 0.631999 9.28233 1.208 7.853C1.76267 6.40233 2.56267 5.14367 3.608 4.077C4.632 2.989 5.83733 2.157 7.224 1.581C8.61067 0.983666 10.136 0.684999 11.8 0.684999C13.464 0.684999 14.9893 0.983666 16.376 1.581C17.7627 2.157 18.9787 2.989 20.024 4.077C21.048 5.14367 21.848 6.40233 22.424 7.853C22.9787 9.28233 23.256 10.8503 23.256 12.557ZM20.408 12.557C20.408 11.3197 20.1947 10.1783 19.768 9.133C19.3413 8.06633 18.744 7.149 17.976 6.381C17.1867 5.59167 16.2693 4.98367 15.224 4.557C14.1787 4.109 13.0373 3.885 11.8 3.885C10.5627 3.885 9.42133 4.109 8.376 4.557C7.33067 4.98367 6.424 5.59167 5.656 6.381C4.86666 7.149 4.25867 8.06633 3.832 9.133C3.40533 10.1783 3.192 11.3197 3.192 12.557C3.192 13.8157 3.40533 14.9783 3.832 16.045C4.25867 17.0903 4.86666 18.0077 5.656 18.797C6.424 19.5863 7.33067 20.205 8.376 20.653C9.42133 21.0797 10.5627 21.293 11.8 21.293C13.0373 21.293 14.1787 21.0797 15.224 20.653C16.2693 20.205 17.1867 19.5863 17.976 18.797C18.744 18.0077 19.3413 17.0903 19.768 16.045C20.1947 14.9783 20.408 13.8157 20.408 12.557Z" fill="#F2F3EE"/>
</svg>
