<svg width="28" height="167" viewBox="0 0 28 167" fill="none" xmlns="http://www.w3.org/2000/svg">
<path d="M21.496 148.819H3.384V158.643L8.088 158.803C9.66667 158.867 11.1813 158.974 12.632 159.123C14.0827 159.251 15.3947 159.443 16.568 159.699C17.72 159.955 18.6693 160.318 19.416 160.787C20.1627 161.235 20.6213 161.811 20.792 162.515L20.216 165.971C20.28 165.139 20.0027 164.457 19.384 163.923C18.744 163.369 17.8587 162.942 16.728 162.643C15.576 162.323 14.2427 162.089 12.728 161.939C11.192 161.79 9.54933 161.683 7.8 161.619L0.599998 161.395V145.651H21.496V148.819ZM27.896 166.771L20.216 166.739L20.216 142.355H27.896V145.331H23L23 163.763L27.896 163.795V166.771ZM23.256 127.901C23.256 129.607 22.968 131.197 22.392 132.669C21.816 134.119 21.016 135.378 19.992 136.445C18.9467 137.511 17.7307 138.343 16.344 138.941C14.9573 139.538 13.4427 139.837 11.8 139.837C10.1573 139.837 8.64267 139.538 7.256 138.941C5.86933 138.343 4.664 137.511 3.64 136.445C2.59467 135.378 1.784 134.119 1.208 132.669C0.631999 131.218 0.344 129.629 0.344 127.901C0.344 126.194 0.631999 124.626 1.208 123.197C1.76267 121.746 2.56267 120.487 3.608 119.421C4.632 118.333 5.83733 117.501 7.224 116.925C8.61067 116.327 10.136 116.029 11.8 116.029C13.464 116.029 14.9893 116.327 16.376 116.925C17.7627 117.501 18.9787 118.333 20.024 119.421C21.048 120.487 21.848 121.746 22.424 123.197C22.9787 124.626 23.256 126.194 23.256 127.901ZM20.408 127.901C20.408 126.663 20.1947 125.522 19.768 124.477C19.3413 123.41 18.744 122.493 17.976 121.725C17.1867 120.935 16.2693 120.327 15.224 119.901C14.1787 119.453 13.0373 119.229 11.8 119.229C10.5627 119.229 9.42133 119.453 8.376 119.901C7.33067 120.327 6.424 120.935 5.656 121.725C4.86666 122.493 4.25867 123.41 3.832 124.477C3.40533 125.522 3.192 126.663 3.192 127.901C3.192 129.159 3.40533 130.322 3.832 131.389C4.25867 132.434 4.86666 133.351 5.656 134.141C6.424 134.93 7.33067 135.549 8.376 135.997C9.42133 136.423 10.5627 136.637 11.8 136.637C13.0373 136.637 14.1787 136.423 15.224 135.997C16.2693 135.549 17.1867 134.93 17.976 134.141C18.744 133.351 19.3413 132.434 19.768 131.389C20.1947 130.322 20.408 129.159 20.408 127.901ZM23 110.856H0.599998L0.599998 101.224C0.599998 98.7917 1.09067 96.8824 2.072 95.4957C3.05333 94.1091 4.48267 93.4157 6.36 93.4157C8.19467 93.4157 9.60267 94.0771 10.584 95.3997C11.544 96.7224 12.024 98.4611 12.024 100.616L11.064 100.04C11.064 97.5437 11.5653 95.6344 12.568 94.3117C13.5493 92.9677 14.9893 92.2957 16.888 92.2957C18.808 92.2957 20.312 92.9997 21.4 94.4077C22.4667 95.7944 23 97.8637 23 100.616V110.856ZM20.472 107.688V100.68C20.472 98.9731 20.1627 97.6931 19.544 96.8397C18.904 95.9651 17.9333 95.5278 16.632 95.5278C15.3307 95.5278 14.3813 95.9651 13.784 96.8397C13.1867 97.6931 12.888 98.9731 12.888 100.68V107.688H20.472ZM10.456 107.688V101.448C10.456 99.8904 10.1467 98.7064 9.528 97.8958C8.90933 97.0637 8.00267 96.6477 6.808 96.6477C5.592 96.6477 4.67467 97.0637 4.056 97.8958C3.43733 98.7064 3.128 99.8904 3.128 101.448V107.688H10.456ZM10.264 84.0375V72.5175H12.984V84.0375H10.264ZM20.216 83.7495V70.6935H23V86.9495H0.599998L0.599998 71.1415H3.384L3.384 83.7495H20.216ZM23 65.6682H0.599998V56.9322C0.599998 54.9696 0.909332 53.2949 1.528 51.9082C2.14667 50.5216 3.04267 49.4549 4.216 48.7082C5.38933 47.9616 6.78667 47.5882 8.408 47.5882C10.0293 47.5882 11.4267 47.9616 12.6 48.7082C13.752 49.4549 14.648 50.5216 15.288 51.9082C15.9067 53.2949 16.216 54.9696 16.216 56.9322V63.9082L14.712 62.4682H23V65.6682ZM15.032 62.4682L13.432 63.9082V57.0282C13.432 54.9802 12.9947 53.4336 12.12 52.3882C11.2453 51.3216 10.008 50.7882 8.408 50.7882C6.808 50.7882 5.57067 51.3216 4.696 52.3882C3.82133 53.4336 3.384 54.9802 3.384 57.0282V63.9082L1.784 62.4682H15.032ZM23 43.137H0.599998V39.969H17.88L0.599998 26.721V23.777H23V26.913H5.752L23 40.193V43.137ZM10.264 13.8812V2.36125H12.984V13.8812H10.264ZM20.216 13.5932V0.537249H23V16.7932H0.599998V0.985249H3.384V13.5932H20.216Z" fill="#F2F3EE"/>
</svg>
